<mxfile host="app.diagrams.net" modified="2024-01-06T01:07:37.689Z" agent="Mozilla/5.0 (Windows NT 10.0; Win64; x64) AppleWebKit/537.36 (KHTML, like Gecko) Chrome/120.0.0.0 Safari/537.36" etag="EChoq5qLBC6b-gwxEGZ2" version="22.1.17" type="device">
  <diagram name="Page-1" id="nDpB-C4uaRFqqQgDLJCR">
    <mxGraphModel dx="4275" dy="1535" grid="1" gridSize="10" guides="1" tooltips="1" connect="1" arrows="0" fold="1" page="1" pageScale="1" pageWidth="850" pageHeight="1100" math="0" shadow="0">
      <root>
        <mxCell id="0" />
        <mxCell id="1" parent="0" />
        <mxCell id="ptCPzutmmY7kmalORsYN-1" value="" style="group" parent="1" vertex="1" connectable="0">
          <mxGeometry x="-2880" y="-920" width="2553" height="1670" as="geometry" />
        </mxCell>
        <mxCell id="4zU_NHBIepmCl1VkYr-2-1" value="UG_Std" style="whiteSpace=wrap;html=1;points=[[0,0,0,0,0],[0,0.25,0,0,0],[0,0.5,0,0,0],[0,0.75,0,0,0],[0,1,0,0,0],[0.23,0,0,0,0],[0.25,1,0,0,0],[0.44,0,0,0,0],[0.5,1,0,0,0],[0.64,0,0,0,0],[0.75,1,0,0,0],[0.81,0,0,0,0],[1,0,0,0,0],[1,0.25,0,0,0],[1,0.5,0,0,0],[1,0.75,0,0,0],[1,1,0,0,0]];fontSize=12;" parent="ptCPzutmmY7kmalORsYN-1" vertex="1">
          <mxGeometry x="1468.75" y="1177" width="111" height="30" as="geometry" />
        </mxCell>
        <mxCell id="4zU_NHBIepmCl1VkYr-2-2" value="&lt;b style=&quot;font-size: 12px;&quot;&gt;&lt;u style=&quot;font-size: 12px;&quot;&gt;PG_Std_id&lt;/u&gt;&lt;/b&gt;" style="ellipse;whiteSpace=wrap;html=1;fontSize=12;" parent="ptCPzutmmY7kmalORsYN-1" vertex="1">
          <mxGeometry x="1097.5" y="1133.43" width="80" height="30" as="geometry" />
        </mxCell>
        <mxCell id="4zU_NHBIepmCl1VkYr-2-5" value="PG_Std" style="whiteSpace=wrap;html=1;points=[[0,0,0,0,0],[0,0.25,0,0,0],[0,0.5,0,0,0],[0,0.75,0,0,0],[0,1,0,0,0],[0.21,0,0,0,0],[0.25,1,0,0,0],[0.41,0,0,0,0],[0.5,1,0,0,0],[0.63,0,0,0,0],[0.75,1,0,0,0],[0.81,0,0,0,0],[1,0,0,0,0],[1,0.25,0,0,0],[1,0.5,0,0,0],[1,0.75,0,0,0],[1,1,0,0,0]];fontSize=12;" parent="ptCPzutmmY7kmalORsYN-1" vertex="1">
          <mxGeometry x="1201.75" y="1171.99" width="91.5" height="30" as="geometry" />
        </mxCell>
        <mxCell id="4zU_NHBIepmCl1VkYr-2-6" style="rounded=0;orthogonalLoop=1;jettySize=auto;html=1;exitX=0.21;exitY=0;exitDx=0;exitDy=0;entryX=1;entryY=1;entryDx=0;entryDy=0;endArrow=none;endFill=0;exitPerimeter=0;fontSize=12;" parent="ptCPzutmmY7kmalORsYN-1" source="4zU_NHBIepmCl1VkYr-2-5" target="4zU_NHBIepmCl1VkYr-2-2" edge="1">
          <mxGeometry relative="1" as="geometry" />
        </mxCell>
        <mxCell id="4zU_NHBIepmCl1VkYr-2-17" value="Admins" style="whiteSpace=wrap;html=1;fontSize=12;" parent="ptCPzutmmY7kmalORsYN-1" vertex="1">
          <mxGeometry x="2130" y="1128.88" width="130" height="30" as="geometry" />
        </mxCell>
        <mxCell id="4zU_NHBIepmCl1VkYr-2-18" style="rounded=0;orthogonalLoop=1;jettySize=auto;html=1;exitX=0.81;exitY=0;exitDx=0;exitDy=0;endArrow=none;endFill=0;entryX=0.5;entryY=1;entryDx=0;entryDy=0;exitPerimeter=0;fontSize=12;" parent="ptCPzutmmY7kmalORsYN-1" source="4zU_NHBIepmCl1VkYr-2-1" target="4zU_NHBIepmCl1VkYr-2-23" edge="1">
          <mxGeometry relative="1" as="geometry">
            <mxPoint x="1568.5" y="1176.25" as="sourcePoint" />
            <mxPoint x="1528.5" y="1141.25" as="targetPoint" />
          </mxGeometry>
        </mxCell>
        <mxCell id="4zU_NHBIepmCl1VkYr-2-23" value="UG_Name" style="ellipse;whiteSpace=wrap;html=1;fontSize=12;" parent="ptCPzutmmY7kmalORsYN-1" vertex="1">
          <mxGeometry x="1543.5" y="1117" width="80" height="30" as="geometry" />
        </mxCell>
        <mxCell id="4zU_NHBIepmCl1VkYr-2-24" style="rounded=0;orthogonalLoop=1;jettySize=auto;html=1;endArrow=none;endFill=0;entryX=1;entryY=0;entryDx=0;entryDy=0;exitX=0;exitY=0.5;exitDx=0;exitDy=0;exitPerimeter=0;fontSize=12;" parent="ptCPzutmmY7kmalORsYN-1" source="4zU_NHBIepmCl1VkYr-2-5" target="4zU_NHBIepmCl1VkYr-2-25" edge="1">
          <mxGeometry relative="1" as="geometry">
            <mxPoint x="1256" y="1180.75" as="sourcePoint" />
            <mxPoint x="1265.5" y="1141.25" as="targetPoint" />
          </mxGeometry>
        </mxCell>
        <mxCell id="4zU_NHBIepmCl1VkYr-2-25" value="PG_Name" style="ellipse;whiteSpace=wrap;html=1;fontSize=12;" parent="ptCPzutmmY7kmalORsYN-1" vertex="1">
          <mxGeometry x="1107.5" y="1201.99" width="80" height="30" as="geometry" />
        </mxCell>
        <mxCell id="4zU_NHBIepmCl1VkYr-2-26" value="&lt;span style=&quot;font-size: 12px;&quot;&gt;Admin_id&lt;/span&gt;" style="ellipse;whiteSpace=wrap;html=1;fontStyle=5;fontSize=12;" parent="ptCPzutmmY7kmalORsYN-1" vertex="1">
          <mxGeometry x="2225" y="1067" width="80" height="30" as="geometry" />
        </mxCell>
        <mxCell id="4zU_NHBIepmCl1VkYr-2-27" style="rounded=0;orthogonalLoop=1;jettySize=auto;html=1;exitX=0.75;exitY=0;exitDx=0;exitDy=0;entryX=0;entryY=1;entryDx=0;entryDy=0;endArrow=none;endFill=0;fontSize=12;" parent="ptCPzutmmY7kmalORsYN-1" source="4zU_NHBIepmCl1VkYr-2-17" target="4zU_NHBIepmCl1VkYr-2-26" edge="1">
          <mxGeometry relative="1" as="geometry">
            <mxPoint x="2312.5" y="1216.38" as="sourcePoint" />
          </mxGeometry>
        </mxCell>
        <mxCell id="4zU_NHBIepmCl1VkYr-2-32" style="rounded=0;orthogonalLoop=1;jettySize=auto;html=1;exitX=0.25;exitY=0;exitDx=0;exitDy=0;endArrow=none;endFill=0;entryX=1;entryY=1;entryDx=0;entryDy=0;fontSize=12;" parent="ptCPzutmmY7kmalORsYN-1" source="4zU_NHBIepmCl1VkYr-2-17" target="4zU_NHBIepmCl1VkYr-2-33" edge="1">
          <mxGeometry relative="1" as="geometry">
            <mxPoint x="2155" y="1116.63" as="sourcePoint" />
            <mxPoint x="2175" y="1081.63" as="targetPoint" />
          </mxGeometry>
        </mxCell>
        <mxCell id="4zU_NHBIepmCl1VkYr-2-33" value="Admin_Name" style="ellipse;whiteSpace=wrap;html=1;fontSize=12;" parent="ptCPzutmmY7kmalORsYN-1" vertex="1">
          <mxGeometry x="2060" y="1067" width="100" height="30" as="geometry" />
        </mxCell>
        <mxCell id="4zU_NHBIepmCl1VkYr-2-34" value="&lt;b style=&quot;font-size: 12px;&quot;&gt;&lt;u style=&quot;font-size: 12px;&quot;&gt;UG_Std_id&lt;/u&gt;&lt;/b&gt;" style="ellipse;whiteSpace=wrap;html=1;fontSize=12;" parent="ptCPzutmmY7kmalORsYN-1" vertex="1">
          <mxGeometry x="1420" y="1117" width="80" height="30" as="geometry" />
        </mxCell>
        <mxCell id="4zU_NHBIepmCl1VkYr-2-35" style="rounded=0;orthogonalLoop=1;jettySize=auto;html=1;entryX=0.5;entryY=1;entryDx=0;entryDy=0;endArrow=none;endFill=0;exitX=0.25;exitY=0;exitDx=0;exitDy=0;fontSize=12;" parent="ptCPzutmmY7kmalORsYN-1" source="4zU_NHBIepmCl1VkYr-2-1" target="4zU_NHBIepmCl1VkYr-2-34" edge="1">
          <mxGeometry relative="1" as="geometry">
            <mxPoint x="1473.5" y="1191.25" as="sourcePoint" />
          </mxGeometry>
        </mxCell>
        <mxCell id="4zU_NHBIepmCl1VkYr-2-36" value="&lt;span style=&quot;border-color: var(--border-color); font-size: 12px;&quot;&gt;Username&lt;/span&gt;" style="ellipse;whiteSpace=wrap;html=1;fontStyle=0;shadow=0;fontSize=12;" parent="ptCPzutmmY7kmalORsYN-1" vertex="1">
          <mxGeometry x="1310" y="1570.6299999999999" width="60" height="30" as="geometry" />
        </mxCell>
        <mxCell id="4zU_NHBIepmCl1VkYr-2-37" value="Password" style="ellipse;whiteSpace=wrap;html=1;fontSize=12;" parent="ptCPzutmmY7kmalORsYN-1" vertex="1">
          <mxGeometry x="1648.5" y="1573.1299999999999" width="80" height="30" as="geometry" />
        </mxCell>
        <mxCell id="4zU_NHBIepmCl1VkYr-2-38" style="rounded=0;orthogonalLoop=1;jettySize=auto;html=1;endArrow=none;endFill=0;entryX=0.5;entryY=0;entryDx=0;entryDy=0;exitX=1;exitY=1;exitDx=0;exitDy=0;fontSize=12;" parent="ptCPzutmmY7kmalORsYN-1" source="4zU_NHBIepmCl1VkYr-2-39" target="4zU_NHBIepmCl1VkYr-2-37" edge="1">
          <mxGeometry relative="1" as="geometry">
            <mxPoint x="1680" y="1590" as="targetPoint" />
            <mxPoint x="1680" y="1530" as="sourcePoint" />
          </mxGeometry>
        </mxCell>
        <mxCell id="4zU_NHBIepmCl1VkYr-2-39" value="ONEPIECE" style="whiteSpace=wrap;html=1;points=[[0,0,0,0,0],[0,0.25,0,0,0],[0,0.5,0,0,0],[0,0.75,0,0,0],[0,1,0,0,0],[0.25,0,0,0,0],[0.25,1,0,0,0],[0.44,1,0,0,1],[0.5,0,0,0,0],[0.61,1,0,0,1],[0.75,0,0,0,0],[0.75,1,0,0,0],[1,0,0,0,0],[1,0.25,0,0,0],[1,0.5,0,0,0],[1,0.75,0,0,0],[1,1,0,0,0]];fontSize=12;" parent="ptCPzutmmY7kmalORsYN-1" vertex="1">
          <mxGeometry x="1400" y="1450" width="248.5" height="60" as="geometry" />
        </mxCell>
        <mxCell id="4zU_NHBIepmCl1VkYr-2-40" style="rounded=0;orthogonalLoop=1;jettySize=auto;html=1;exitX=0;exitY=1;exitDx=0;exitDy=0;endArrow=none;endFill=0;entryX=1;entryY=0.5;entryDx=0;entryDy=0;fontSize=12;" parent="ptCPzutmmY7kmalORsYN-1" source="4zU_NHBIepmCl1VkYr-2-39" target="4zU_NHBIepmCl1VkYr-2-36" edge="1">
          <mxGeometry relative="1" as="geometry">
            <mxPoint x="1656" y="1759.25" as="sourcePoint" />
            <mxPoint x="1591" y="1625" as="targetPoint" />
          </mxGeometry>
        </mxCell>
        <mxCell id="4zU_NHBIepmCl1VkYr-2-61" style="rounded=0;orthogonalLoop=1;jettySize=auto;html=1;exitX=0.75;exitY=1;exitDx=0;exitDy=0;endArrow=none;endFill=0;entryX=0.5;entryY=0;entryDx=0;entryDy=0;fontSize=12;" parent="ptCPzutmmY7kmalORsYN-1" source="4zU_NHBIepmCl1VkYr-2-39" target="4zU_NHBIepmCl1VkYr-2-70" edge="1">
          <mxGeometry relative="1" as="geometry">
            <mxPoint x="1564" y="1583.75" as="sourcePoint" />
            <mxPoint x="1580" y="1600" as="targetPoint" />
          </mxGeometry>
        </mxCell>
        <mxCell id="4zU_NHBIepmCl1VkYr-2-62" value="user_type" style="ellipse;whiteSpace=wrap;html=1;fontSize=12;" parent="ptCPzutmmY7kmalORsYN-1" vertex="1">
          <mxGeometry x="1430" y="1600.63" width="80" height="30" as="geometry" />
        </mxCell>
        <mxCell id="4zU_NHBIepmCl1VkYr-2-63" style="rounded=0;orthogonalLoop=1;jettySize=auto;html=1;exitX=0.25;exitY=1;exitDx=0;exitDy=0;entryX=0.5;entryY=0;entryDx=0;entryDy=0;endArrow=none;endFill=0;fontSize=12;" parent="ptCPzutmmY7kmalORsYN-1" source="4zU_NHBIepmCl1VkYr-2-39" target="4zU_NHBIepmCl1VkYr-2-62" edge="1">
          <mxGeometry relative="1" as="geometry">
            <mxPoint x="1521.5" y="1536.76" as="sourcePoint" />
          </mxGeometry>
        </mxCell>
        <mxCell id="4zU_NHBIepmCl1VkYr-2-64" style="rounded=0;orthogonalLoop=1;jettySize=auto;html=1;entryX=0.5;entryY=1;entryDx=0;entryDy=0;endArrow=none;endFill=0;exitX=0.5;exitY=0;exitDx=0;exitDy=0;fontSize=12;" parent="ptCPzutmmY7kmalORsYN-1" source="4zU_NHBIepmCl1VkYr-2-17" target="4zU_NHBIepmCl1VkYr-2-65" edge="1">
          <mxGeometry relative="1" as="geometry">
            <mxPoint x="2190" y="1128.38" as="sourcePoint" />
          </mxGeometry>
        </mxCell>
        <mxCell id="4zU_NHBIepmCl1VkYr-2-65" value="Hire_Date" style="ellipse;whiteSpace=wrap;html=1;fontSize=12;" parent="ptCPzutmmY7kmalORsYN-1" vertex="1">
          <mxGeometry x="2155" y="1030" width="80" height="30" as="geometry" />
        </mxCell>
        <mxCell id="4zU_NHBIepmCl1VkYr-2-70" value="&lt;b style=&quot;font-size: 12px;&quot;&gt;&lt;u style=&quot;font-size: 12px;&quot;&gt;user_id&lt;/u&gt;&lt;/b&gt;" style="ellipse;whiteSpace=wrap;html=1;align=center;shadow=0;fontSize=12;" parent="ptCPzutmmY7kmalORsYN-1" vertex="1">
          <mxGeometry x="1543.5" y="1600.63" width="60" height="30" as="geometry" />
        </mxCell>
        <mxCell id="4zU_NHBIepmCl1VkYr-2-83" value="" style="shape=link;html=1;rounded=0;entryX=0;entryY=0.5;entryDx=0;entryDy=0;edgeStyle=orthogonalEdgeStyle;exitX=1;exitY=0.5;exitDx=0;exitDy=0;fontSize=12;" parent="ptCPzutmmY7kmalORsYN-1" source="4zU_NHBIepmCl1VkYr-2-330" target="4zU_NHBIepmCl1VkYr-2-39" edge="1">
          <mxGeometry relative="1" as="geometry">
            <mxPoint x="1030" y="1470" as="sourcePoint" />
            <mxPoint x="1677.05" y="1516" as="targetPoint" />
          </mxGeometry>
        </mxCell>
        <mxCell id="4zU_NHBIepmCl1VkYr-2-84" value="1" style="resizable=0;html=1;whiteSpace=wrap;align=right;verticalAlign=bottom;fontSize=12;" parent="4zU_NHBIepmCl1VkYr-2-83" connectable="0" vertex="1">
          <mxGeometry x="1" relative="1" as="geometry">
            <mxPoint x="-15" y="-4" as="offset" />
          </mxGeometry>
        </mxCell>
        <mxCell id="4zU_NHBIepmCl1VkYr-2-107" value="HAS" style="rhombus;whiteSpace=wrap;html=1;fontSize=12;" parent="ptCPzutmmY7kmalORsYN-1" vertex="1">
          <mxGeometry x="1310" y="1310" width="75" height="80" as="geometry" />
        </mxCell>
        <mxCell id="4zU_NHBIepmCl1VkYr-2-108" value="" style="shape=link;html=1;rounded=0;entryX=0.25;entryY=0;entryDx=0;entryDy=0;exitX=0.5;exitY=1;exitDx=0;exitDy=0;edgeStyle=orthogonalEdgeStyle;fontSize=12;" parent="ptCPzutmmY7kmalORsYN-1" source="4zU_NHBIepmCl1VkYr-2-107" target="4zU_NHBIepmCl1VkYr-2-39" edge="1">
          <mxGeometry relative="1" as="geometry">
            <mxPoint x="1928.05" y="1382.75" as="sourcePoint" />
            <mxPoint x="1668.5" y="1450" as="targetPoint" />
          </mxGeometry>
        </mxCell>
        <mxCell id="4zU_NHBIepmCl1VkYr-2-109" value="1" style="resizable=0;html=1;whiteSpace=wrap;align=right;verticalAlign=bottom;fontSize=12;" parent="4zU_NHBIepmCl1VkYr-2-108" connectable="0" vertex="1">
          <mxGeometry x="1" relative="1" as="geometry">
            <mxPoint x="-12" y="-4" as="offset" />
          </mxGeometry>
        </mxCell>
        <mxCell id="4zU_NHBIepmCl1VkYr-2-110" value="" style="endArrow=none;html=1;rounded=0;exitX=0.5;exitY=0;exitDx=0;exitDy=0;entryX=0.5;entryY=1;entryDx=0;entryDy=0;edgeStyle=orthogonalEdgeStyle;fontSize=12;" parent="ptCPzutmmY7kmalORsYN-1" source="4zU_NHBIepmCl1VkYr-2-107" target="4zU_NHBIepmCl1VkYr-2-5" edge="1">
          <mxGeometry relative="1" as="geometry">
            <mxPoint x="1711.55" y="1257" as="sourcePoint" />
            <mxPoint x="1258.5" y="1223" as="targetPoint" />
          </mxGeometry>
        </mxCell>
        <mxCell id="4zU_NHBIepmCl1VkYr-2-111" value="1" style="resizable=0;html=1;whiteSpace=wrap;align=right;verticalAlign=bottom;fontSize=12;" parent="4zU_NHBIepmCl1VkYr-2-110" connectable="0" vertex="1">
          <mxGeometry x="1" relative="1" as="geometry">
            <mxPoint x="17" y="27" as="offset" />
          </mxGeometry>
        </mxCell>
        <mxCell id="4zU_NHBIepmCl1VkYr-2-112" value="HAS" style="rhombus;whiteSpace=wrap;html=1;fontSize=12;" parent="ptCPzutmmY7kmalORsYN-1" vertex="1">
          <mxGeometry x="1486.75" y="1300" width="75" height="80" as="geometry" />
        </mxCell>
        <mxCell id="4zU_NHBIepmCl1VkYr-2-113" value="" style="shape=link;html=1;rounded=0;entryX=0.5;entryY=0;entryDx=0;entryDy=0;exitX=0.5;exitY=1;exitDx=0;exitDy=0;fontSize=12;" parent="ptCPzutmmY7kmalORsYN-1" source="4zU_NHBIepmCl1VkYr-2-112" target="4zU_NHBIepmCl1VkYr-2-39" edge="1">
          <mxGeometry relative="1" as="geometry">
            <mxPoint x="2199.3" y="1384" as="sourcePoint" />
            <mxPoint x="1939.75" y="1451.25" as="targetPoint" />
          </mxGeometry>
        </mxCell>
        <mxCell id="4zU_NHBIepmCl1VkYr-2-114" value="1" style="resizable=0;html=1;whiteSpace=wrap;align=right;verticalAlign=bottom;fontSize=12;" parent="4zU_NHBIepmCl1VkYr-2-113" connectable="0" vertex="1">
          <mxGeometry x="1" relative="1" as="geometry">
            <mxPoint x="-14" y="-10" as="offset" />
          </mxGeometry>
        </mxCell>
        <mxCell id="4zU_NHBIepmCl1VkYr-2-115" value="" style="endArrow=none;html=1;rounded=0;exitX=0.5;exitY=0;exitDx=0;exitDy=0;entryX=0.5;entryY=1;entryDx=0;entryDy=0;fontSize=12;" parent="ptCPzutmmY7kmalORsYN-1" source="4zU_NHBIepmCl1VkYr-2-112" target="4zU_NHBIepmCl1VkYr-2-1" edge="1">
          <mxGeometry relative="1" as="geometry">
            <mxPoint x="1982.8" y="1258.25" as="sourcePoint" />
            <mxPoint x="1529.75" y="1224.25" as="targetPoint" />
          </mxGeometry>
        </mxCell>
        <mxCell id="4zU_NHBIepmCl1VkYr-2-116" value="1" style="resizable=0;html=1;whiteSpace=wrap;align=right;verticalAlign=bottom;fontSize=12;" parent="4zU_NHBIepmCl1VkYr-2-115" connectable="0" vertex="1">
          <mxGeometry x="1" relative="1" as="geometry">
            <mxPoint x="17" y="27" as="offset" />
          </mxGeometry>
        </mxCell>
        <mxCell id="4zU_NHBIepmCl1VkYr-2-118" value="" style="shape=link;html=1;rounded=0;entryX=0.75;entryY=0;entryDx=0;entryDy=0;edgeStyle=orthogonalEdgeStyle;exitX=0;exitY=0.5;exitDx=0;exitDy=0;fontSize=12;" parent="ptCPzutmmY7kmalORsYN-1" source="4zU_NHBIepmCl1VkYr-2-316" target="4zU_NHBIepmCl1VkYr-2-39" edge="1">
          <mxGeometry relative="1" as="geometry">
            <mxPoint x="1720" y="1390" as="sourcePoint" />
            <mxPoint x="2140" y="1463.5" as="targetPoint" />
          </mxGeometry>
        </mxCell>
        <mxCell id="4zU_NHBIepmCl1VkYr-2-119" value="1" style="resizable=0;html=1;whiteSpace=wrap;align=right;verticalAlign=bottom;fontSize=12;" parent="4zU_NHBIepmCl1VkYr-2-118" connectable="0" vertex="1">
          <mxGeometry x="1" relative="1" as="geometry">
            <mxPoint x="-13" y="-10" as="offset" />
          </mxGeometry>
        </mxCell>
        <mxCell id="4zU_NHBIepmCl1VkYr-2-120" value="" style="endArrow=none;html=1;rounded=0;exitX=0.5;exitY=0;exitDx=0;exitDy=0;entryX=0.5;entryY=1;entryDx=0;entryDy=0;edgeStyle=orthogonalEdgeStyle;fontSize=12;" parent="ptCPzutmmY7kmalORsYN-1" source="4zU_NHBIepmCl1VkYr-2-122" target="4zU_NHBIepmCl1VkYr-2-17" edge="1">
          <mxGeometry relative="1" as="geometry">
            <mxPoint x="2183.05" y="1270.5" as="sourcePoint" />
            <mxPoint x="1730" y="1236.5" as="targetPoint" />
          </mxGeometry>
        </mxCell>
        <mxCell id="4zU_NHBIepmCl1VkYr-2-121" value="1" style="resizable=0;html=1;whiteSpace=wrap;align=right;verticalAlign=bottom;fontSize=12;" parent="4zU_NHBIepmCl1VkYr-2-120" connectable="0" vertex="1">
          <mxGeometry x="1" relative="1" as="geometry">
            <mxPoint x="17" y="27" as="offset" />
          </mxGeometry>
        </mxCell>
        <mxCell id="4zU_NHBIepmCl1VkYr-2-122" value="HAS" style="rhombus;whiteSpace=wrap;html=1;fontSize=12;" parent="ptCPzutmmY7kmalORsYN-1" vertex="1">
          <mxGeometry x="1960" y="1370" width="75" height="80" as="geometry" />
        </mxCell>
        <mxCell id="4zU_NHBIepmCl1VkYr-2-129" value="Reservations" style="shape=ext;margin=3;double=1;whiteSpace=wrap;html=1;align=center;rounded=1;points=[[0,0,0,0,0],[0,0.25,0,0,0],[0,0.5,0,0,0],[0,0.75,0,0,0],[0,1,0,0,0],[0.17,1,0,0,0],[0.25,0,0,0,0],[0.36,1,0,0,0],[0.5,0,0,0,0],[0.5,1,0,0,0],[0.7,0,0,0,0],[0.75,1,0,0,0],[0.84,0,0,0,0],[0.93,1,0,0,0],[1,0,0,0,0],[1,0.25,0,0,0],[1,0.5,0,0,0],[1,0.75,0,0,0]];fontSize=12;" parent="ptCPzutmmY7kmalORsYN-1" vertex="1">
          <mxGeometry x="1329" y="515.75" width="121" height="30" as="geometry" />
        </mxCell>
        <mxCell id="4zU_NHBIepmCl1VkYr-2-130" style="rounded=0;orthogonalLoop=1;jettySize=auto;html=1;entryX=1;entryY=0.5;entryDx=0;entryDy=0;endArrow=none;endFill=0;exitX=0;exitY=0.75;exitDx=0;exitDy=0;exitPerimeter=0;fontSize=12;" parent="ptCPzutmmY7kmalORsYN-1" source="4zU_NHBIepmCl1VkYr-2-129" target="4zU_NHBIepmCl1VkYr-2-141" edge="1">
          <mxGeometry relative="1" as="geometry">
            <mxPoint x="1311" y="528.25" as="sourcePoint" />
            <mxPoint x="1268.5" y="530.75" as="targetPoint" />
          </mxGeometry>
        </mxCell>
        <mxCell id="4zU_NHBIepmCl1VkYr-2-131" value="Status" style="ellipse;whiteSpace=wrap;html=1;fontSize=12;" parent="ptCPzutmmY7kmalORsYN-1" vertex="1">
          <mxGeometry x="1155" y="537" width="60" height="30" as="geometry" />
        </mxCell>
        <mxCell id="4zU_NHBIepmCl1VkYr-2-132" style="rounded=0;orthogonalLoop=1;jettySize=auto;html=1;exitX=0;exitY=0.5;exitDx=0;exitDy=0;entryX=1;entryY=0.5;entryDx=0;entryDy=0;endArrow=none;endFill=0;exitPerimeter=0;fontSize=12;" parent="ptCPzutmmY7kmalORsYN-1" source="4zU_NHBIepmCl1VkYr-2-129" target="4zU_NHBIepmCl1VkYr-2-131" edge="1">
          <mxGeometry relative="1" as="geometry">
            <mxPoint x="1426" y="523" as="sourcePoint" />
            <mxPoint x="1472" y="493" as="targetPoint" />
          </mxGeometry>
        </mxCell>
        <mxCell id="4zU_NHBIepmCl1VkYr-2-135" value="rsrv_date" style="ellipse;whiteSpace=wrap;html=1;fontSize=12;" parent="ptCPzutmmY7kmalORsYN-1" vertex="1">
          <mxGeometry x="1212.5" y="590" width="70" height="30" as="geometry" />
        </mxCell>
        <mxCell id="4zU_NHBIepmCl1VkYr-2-136" style="rounded=0;orthogonalLoop=1;jettySize=auto;html=1;entryX=1;entryY=0;entryDx=0;entryDy=0;endArrow=none;endFill=0;fontSize=12;" parent="ptCPzutmmY7kmalORsYN-1" target="4zU_NHBIepmCl1VkYr-2-135" edge="1">
          <mxGeometry relative="1" as="geometry">
            <mxPoint x="1329" y="546" as="sourcePoint" />
          </mxGeometry>
        </mxCell>
        <mxCell id="4zU_NHBIepmCl1VkYr-2-141" value="&lt;span style=&quot;border-bottom: 1px dotted; font-size: 12px;&quot;&gt;Rsrv_id&lt;/span&gt;" style="ellipse;whiteSpace=wrap;html=1;align=center;fontSize=12;" parent="ptCPzutmmY7kmalORsYN-1" vertex="1">
          <mxGeometry x="1158.5" y="570" width="60" height="30" as="geometry" />
        </mxCell>
        <mxCell id="4zU_NHBIepmCl1VkYr-2-143" value="" style="shape=link;html=1;rounded=0;entryX=0.5;entryY=0;entryDx=0;entryDy=0;exitX=0.5;exitY=1;exitDx=0;exitDy=0;edgeStyle=orthogonalEdgeStyle;fontSize=12;" parent="ptCPzutmmY7kmalORsYN-1" source="4zU_NHBIepmCl1VkYr-2-129" target="4zU_NHBIepmCl1VkYr-2-145" edge="1">
          <mxGeometry relative="1" as="geometry">
            <mxPoint x="1481" y="910" as="sourcePoint" />
            <mxPoint x="1570" y="890" as="targetPoint" />
            <Array as="points">
              <mxPoint x="1390" y="700" />
              <mxPoint x="1258" y="700" />
              <mxPoint x="1258" y="750" />
            </Array>
          </mxGeometry>
        </mxCell>
        <mxCell id="4zU_NHBIepmCl1VkYr-2-144" value="M" style="resizable=0;html=1;whiteSpace=wrap;align=right;verticalAlign=bottom;fontSize=12;" parent="4zU_NHBIepmCl1VkYr-2-143" connectable="0" vertex="1">
          <mxGeometry x="1" relative="1" as="geometry">
            <mxPoint x="128" y="-180" as="offset" />
          </mxGeometry>
        </mxCell>
        <mxCell id="4zU_NHBIepmCl1VkYr-2-145" value="made by" style="rhombus;whiteSpace=wrap;html=1;fontSize=12;" parent="ptCPzutmmY7kmalORsYN-1" vertex="1">
          <mxGeometry x="1220" y="750" width="75" height="80" as="geometry" />
        </mxCell>
        <mxCell id="4zU_NHBIepmCl1VkYr-2-147" value="" style="shape=link;html=1;rounded=0;entryX=0.5;entryY=0;entryDx=0;entryDy=0;edgeStyle=orthogonalEdgeStyle;fontSize=12;" parent="ptCPzutmmY7kmalORsYN-1" target="4zU_NHBIepmCl1VkYr-2-149" edge="1">
          <mxGeometry relative="1" as="geometry">
            <mxPoint x="1413" y="546" as="sourcePoint" />
            <mxPoint x="1712.47" y="884.25" as="targetPoint" />
            <Array as="points">
              <mxPoint x="1413" y="546" />
            </Array>
          </mxGeometry>
        </mxCell>
        <mxCell id="4zU_NHBIepmCl1VkYr-2-148" value="M" style="resizable=0;html=1;whiteSpace=wrap;align=right;verticalAlign=bottom;fontSize=12;" parent="4zU_NHBIepmCl1VkYr-2-147" connectable="0" vertex="1">
          <mxGeometry x="1" relative="1" as="geometry">
            <mxPoint x="-4" y="-170" as="offset" />
          </mxGeometry>
        </mxCell>
        <mxCell id="4zU_NHBIepmCl1VkYr-2-149" value="made by" style="rhombus;whiteSpace=wrap;html=1;fontSize=12;" parent="ptCPzutmmY7kmalORsYN-1" vertex="1">
          <mxGeometry x="1375" y="740" width="75" height="80" as="geometry" />
        </mxCell>
        <mxCell id="4zU_NHBIepmCl1VkYr-2-150" value="" style="endArrow=none;html=1;rounded=0;exitX=0.5;exitY=1;exitDx=0;exitDy=0;entryX=0.63;entryY=0;entryDx=0;entryDy=0;edgeStyle=orthogonalEdgeStyle;entryPerimeter=0;fontSize=12;" parent="ptCPzutmmY7kmalORsYN-1" source="4zU_NHBIepmCl1VkYr-2-145" target="4zU_NHBIepmCl1VkYr-2-5" edge="1">
          <mxGeometry relative="1" as="geometry">
            <mxPoint x="1278" y="964.25" as="sourcePoint" />
            <mxPoint x="1184" y="870.25" as="targetPoint" />
            <Array as="points">
              <mxPoint x="1260" y="830" />
              <mxPoint x="1260" y="1001" />
            </Array>
          </mxGeometry>
        </mxCell>
        <mxCell id="4zU_NHBIepmCl1VkYr-2-151" value="1" style="resizable=0;html=1;whiteSpace=wrap;align=right;verticalAlign=bottom;fontSize=12;" parent="4zU_NHBIepmCl1VkYr-2-150" connectable="0" vertex="1">
          <mxGeometry x="1" relative="1" as="geometry">
            <mxPoint x="-3" y="-6" as="offset" />
          </mxGeometry>
        </mxCell>
        <mxCell id="4zU_NHBIepmCl1VkYr-2-152" value="" style="endArrow=none;html=1;rounded=0;exitX=0.5;exitY=1;exitDx=0;exitDy=0;entryX=0.44;entryY=0;entryDx=0;entryDy=0;edgeStyle=orthogonalEdgeStyle;entryPerimeter=0;fontSize=12;" parent="ptCPzutmmY7kmalORsYN-1" source="4zU_NHBIepmCl1VkYr-2-149" target="4zU_NHBIepmCl1VkYr-2-1" edge="1">
          <mxGeometry relative="1" as="geometry">
            <mxPoint x="1400.5" y="800" as="sourcePoint" />
            <mxPoint x="1423.5" y="1156" as="targetPoint" />
            <Array as="points">
              <mxPoint x="1412" y="1010" />
              <mxPoint x="1518" y="1010" />
            </Array>
          </mxGeometry>
        </mxCell>
        <mxCell id="4zU_NHBIepmCl1VkYr-2-153" value="1" style="resizable=0;html=1;whiteSpace=wrap;align=right;verticalAlign=bottom;fontSize=12;" parent="4zU_NHBIepmCl1VkYr-2-152" connectable="0" vertex="1">
          <mxGeometry x="1" relative="1" as="geometry">
            <mxPoint x="-3" y="-8" as="offset" />
          </mxGeometry>
        </mxCell>
        <mxCell id="4zU_NHBIepmCl1VkYr-2-154" value="" style="shape=link;html=1;rounded=0;entryX=0.5;entryY=0;entryDx=0;entryDy=0;exitX=0.25;exitY=1;exitDx=0;exitDy=0;fontSize=12;edgeStyle=orthogonalEdgeStyle;" parent="ptCPzutmmY7kmalORsYN-1" source="4zU_NHBIepmCl1VkYr-2-129" target="4zU_NHBIepmCl1VkYr-2-156" edge="1">
          <mxGeometry relative="1" as="geometry">
            <mxPoint x="967" y="559" as="sourcePoint" />
            <mxPoint x="1356.5900000000001" y="902.6800000000001" as="targetPoint" />
          </mxGeometry>
        </mxCell>
        <mxCell id="4zU_NHBIepmCl1VkYr-2-155" value="M" style="resizable=0;html=1;whiteSpace=wrap;align=right;verticalAlign=bottom;fontSize=12;" parent="4zU_NHBIepmCl1VkYr-2-154" connectable="0" vertex="1">
          <mxGeometry x="1" relative="1" as="geometry">
            <mxPoint x="272" y="-185" as="offset" />
          </mxGeometry>
        </mxCell>
        <mxCell id="4zU_NHBIepmCl1VkYr-2-156" value="reviewwed by" style="rhombus;whiteSpace=wrap;html=1;fontSize=12;" parent="ptCPzutmmY7kmalORsYN-1" vertex="1">
          <mxGeometry x="1084.62" y="751.8599999999999" width="87.88" height="80" as="geometry" />
        </mxCell>
        <mxCell id="4zU_NHBIepmCl1VkYr-2-157" value="" style="endArrow=none;html=1;rounded=0;exitX=0.5;exitY=1;exitDx=0;exitDy=0;edgeStyle=orthogonalEdgeStyle;entryX=0.5;entryY=0;entryDx=0;entryDy=0;fontSize=12;" parent="ptCPzutmmY7kmalORsYN-1" source="4zU_NHBIepmCl1VkYr-2-156" target="4zU_NHBIepmCl1VkYr-2-320" edge="1">
          <mxGeometry relative="1" as="geometry">
            <mxPoint x="1044.62" y="818.4300000000001" as="sourcePoint" />
            <mxPoint x="990" y="1200" as="targetPoint" />
          </mxGeometry>
        </mxCell>
        <mxCell id="4zU_NHBIepmCl1VkYr-2-158" value="1" style="resizable=0;html=1;whiteSpace=wrap;align=right;verticalAlign=bottom;fontSize=12;" parent="4zU_NHBIepmCl1VkYr-2-157" connectable="0" vertex="1">
          <mxGeometry x="1" relative="1" as="geometry">
            <mxPoint x="14" y="-10" as="offset" />
          </mxGeometry>
        </mxCell>
        <mxCell id="4zU_NHBIepmCl1VkYr-2-163" value="Made by" style="rhombus;whiteSpace=wrap;html=1;fontSize=12;" parent="ptCPzutmmY7kmalORsYN-1" vertex="1">
          <mxGeometry x="1522.55" y="752.9300000000001" width="75" height="80" as="geometry" />
        </mxCell>
        <mxCell id="4zU_NHBIepmCl1VkYr-2-164" value="" style="shape=link;html=1;rounded=0;entryX=0.5;entryY=0;entryDx=0;entryDy=0;exitX=0.93;exitY=1;exitDx=0;exitDy=0;edgeStyle=orthogonalEdgeStyle;exitPerimeter=0;fontSize=12;" parent="ptCPzutmmY7kmalORsYN-1" source="4zU_NHBIepmCl1VkYr-2-129" target="4zU_NHBIepmCl1VkYr-2-163" edge="1">
          <mxGeometry relative="1" as="geometry">
            <mxPoint x="1520.5" y="546" as="sourcePoint" />
            <mxPoint x="1835.97" y="884.25" as="targetPoint" />
          </mxGeometry>
        </mxCell>
        <mxCell id="4zU_NHBIepmCl1VkYr-2-165" value="M" style="resizable=0;html=1;whiteSpace=wrap;align=right;verticalAlign=bottom;fontSize=12;" parent="4zU_NHBIepmCl1VkYr-2-164" connectable="0" vertex="1">
          <mxGeometry x="1" relative="1" as="geometry">
            <mxPoint x="-122" y="-183" as="offset" />
          </mxGeometry>
        </mxCell>
        <mxCell id="4zU_NHBIepmCl1VkYr-2-173" value="start" style="ellipse;whiteSpace=wrap;html=1;fontSize=12;" parent="ptCPzutmmY7kmalORsYN-1" vertex="1">
          <mxGeometry x="1511.75" y="60" width="50" height="30" as="geometry" />
        </mxCell>
        <mxCell id="4zU_NHBIepmCl1VkYr-2-174" value="Slots" style="whiteSpace=wrap;html=1;fontSize=12;" parent="ptCPzutmmY7kmalORsYN-1" vertex="1">
          <mxGeometry x="1428.75" y="115" width="77.5" height="30" as="geometry" />
        </mxCell>
        <mxCell id="4zU_NHBIepmCl1VkYr-2-175" style="rounded=0;orthogonalLoop=1;jettySize=auto;html=1;exitX=1;exitY=0;exitDx=0;exitDy=0;entryX=0;entryY=1;entryDx=0;entryDy=0;endArrow=none;endFill=0;fontSize=12;" parent="ptCPzutmmY7kmalORsYN-1" source="4zU_NHBIepmCl1VkYr-2-174" target="4zU_NHBIepmCl1VkYr-2-173" edge="1">
          <mxGeometry relative="1" as="geometry" />
        </mxCell>
        <mxCell id="4zU_NHBIepmCl1VkYr-2-176" value="&lt;b style=&quot;font-size: 12px;&quot;&gt;&lt;u style=&quot;font-size: 12px;&quot;&gt;slot_id&lt;/u&gt;&lt;/b&gt;" style="ellipse;whiteSpace=wrap;html=1;fontSize=12;" parent="ptCPzutmmY7kmalORsYN-1" vertex="1">
          <mxGeometry x="1435" y="50" width="60" height="30" as="geometry" />
        </mxCell>
        <mxCell id="4zU_NHBIepmCl1VkYr-2-177" style="rounded=0;orthogonalLoop=1;jettySize=auto;html=1;exitX=0.5;exitY=0;exitDx=0;exitDy=0;entryX=0.5;entryY=1;entryDx=0;entryDy=0;endArrow=none;endFill=0;fontSize=12;" parent="ptCPzutmmY7kmalORsYN-1" source="4zU_NHBIepmCl1VkYr-2-174" target="4zU_NHBIepmCl1VkYr-2-176" edge="1">
          <mxGeometry relative="1" as="geometry">
            <mxPoint x="1452.5" y="130.74" as="sourcePoint" />
            <mxPoint x="1408.5" y="116.74000000000001" as="targetPoint" />
          </mxGeometry>
        </mxCell>
        <mxCell id="4zU_NHBIepmCl1VkYr-2-178" style="rounded=0;orthogonalLoop=1;jettySize=auto;html=1;exitX=0;exitY=0;exitDx=0;exitDy=0;entryX=1;entryY=1;entryDx=0;entryDy=0;endArrow=none;endFill=0;fontSize=12;" parent="ptCPzutmmY7kmalORsYN-1" source="4zU_NHBIepmCl1VkYr-2-174" target="4zU_NHBIepmCl1VkYr-2-179" edge="1">
          <mxGeometry relative="1" as="geometry">
            <mxPoint x="1475.5" y="170.74" as="sourcePoint" />
          </mxGeometry>
        </mxCell>
        <mxCell id="4zU_NHBIepmCl1VkYr-2-179" value="end" style="ellipse;whiteSpace=wrap;html=1;fontSize=12;" parent="ptCPzutmmY7kmalORsYN-1" vertex="1">
          <mxGeometry x="1380" y="60" width="40" height="30" as="geometry" />
        </mxCell>
        <mxCell id="4zU_NHBIepmCl1VkYr-2-180" value="" style="endArrow=none;html=1;rounded=0;exitX=0.5;exitY=0;exitDx=0;exitDy=0;entryX=0.5;entryY=1;entryDx=0;entryDy=0;edgeStyle=orthogonalEdgeStyle;fontSize=12;" parent="ptCPzutmmY7kmalORsYN-1" source="4zU_NHBIepmCl1VkYr-2-182" target="4zU_NHBIepmCl1VkYr-2-174" edge="1">
          <mxGeometry relative="1" as="geometry">
            <mxPoint x="1649.4199999999998" y="-58.75" as="sourcePoint" />
            <mxPoint x="1191.87" y="-99.75" as="targetPoint" />
          </mxGeometry>
        </mxCell>
        <mxCell id="4zU_NHBIepmCl1VkYr-2-181" value="1" style="resizable=0;html=1;whiteSpace=wrap;align=right;verticalAlign=bottom;fontSize=12;" parent="4zU_NHBIepmCl1VkYr-2-180" connectable="0" vertex="1">
          <mxGeometry x="1" relative="1" as="geometry">
            <mxPoint x="-6" y="25" as="offset" />
          </mxGeometry>
        </mxCell>
        <mxCell id="4zU_NHBIepmCl1VkYr-2-182" value="IN" style="rhombus;whiteSpace=wrap;html=1;fontSize=12;" parent="ptCPzutmmY7kmalORsYN-1" vertex="1">
          <mxGeometry x="1430" y="210" width="75" height="80" as="geometry" />
        </mxCell>
        <mxCell id="4zU_NHBIepmCl1VkYr-2-183" value="" style="shape=link;html=1;rounded=0;exitX=0.5;exitY=1;exitDx=0;exitDy=0;edgeStyle=orthogonalEdgeStyle;entryX=0.7;entryY=0;entryDx=0;entryDy=0;entryPerimeter=0;fontSize=12;" parent="ptCPzutmmY7kmalORsYN-1" source="4zU_NHBIepmCl1VkYr-2-182" target="4zU_NHBIepmCl1VkYr-2-129" edge="1">
          <mxGeometry relative="1" as="geometry">
            <mxPoint x="1865.92" y="67" as="sourcePoint" />
            <mxPoint x="1310" y="130" as="targetPoint" />
            <Array as="points">
              <mxPoint x="1468" y="370" />
              <mxPoint x="1414" y="370" />
            </Array>
          </mxGeometry>
        </mxCell>
        <mxCell id="4zU_NHBIepmCl1VkYr-2-184" value="1" style="resizable=0;html=1;whiteSpace=wrap;align=right;verticalAlign=bottom;fontSize=12;" parent="4zU_NHBIepmCl1VkYr-2-183" connectable="0" vertex="1">
          <mxGeometry x="1" relative="1" as="geometry">
            <mxPoint x="-7" y="-6" as="offset" />
          </mxGeometry>
        </mxCell>
        <mxCell id="4zU_NHBIepmCl1VkYr-2-186" value="&lt;b style=&quot;font-size: 12px;&quot;&gt;&lt;u style=&quot;font-size: 12px;&quot;&gt;Course_id&lt;/u&gt;&lt;/b&gt;" style="ellipse;whiteSpace=wrap;html=1;fontSize=12;" parent="ptCPzutmmY7kmalORsYN-1" vertex="1">
          <mxGeometry x="1012.5" y="145" width="80" height="30" as="geometry" />
        </mxCell>
        <mxCell id="4zU_NHBIepmCl1VkYr-2-187" value="Name" style="ellipse;whiteSpace=wrap;html=1;fontSize=12;" parent="ptCPzutmmY7kmalORsYN-1" vertex="1">
          <mxGeometry x="1050" y="105" width="60" height="30" as="geometry" />
        </mxCell>
        <mxCell id="4zU_NHBIepmCl1VkYr-2-188" value="Credits" style="ellipse;whiteSpace=wrap;html=1;fontSize=12;" parent="ptCPzutmmY7kmalORsYN-1" vertex="1">
          <mxGeometry x="1107.5" y="82.25" width="60" height="30" as="geometry" />
        </mxCell>
        <mxCell id="4zU_NHBIepmCl1VkYr-2-189" style="rounded=0;orthogonalLoop=1;jettySize=auto;html=1;exitX=0;exitY=0;exitDx=0;exitDy=0;entryX=0.5;entryY=1;entryDx=0;entryDy=0;endArrow=none;endFill=0;exitPerimeter=0;fontSize=12;" parent="ptCPzutmmY7kmalORsYN-1" source="4zU_NHBIepmCl1VkYr-2-190" target="4zU_NHBIepmCl1VkYr-2-187" edge="1">
          <mxGeometry relative="1" as="geometry" />
        </mxCell>
        <mxCell id="4zU_NHBIepmCl1VkYr-2-190" value="Courses" style="shape=ext;margin=3;double=1;whiteSpace=wrap;html=1;align=center;rounded=1;points=[[0,0,0,0,0],[0,0.25,0,0,0],[0,0.5,0,0,0],[0,0.75,0,0,0],[0,1,0,0,0],[0.25,0,0,0,0],[0.25,1,0,0,0],[0.43,0,0,0,0],[0.5,1,0,0,0],[0.62,0,0,0,0],[0.75,1,0,0,0],[0.82,0,0,0,0],[1,0,0,0,0],[1,0.25,0,0,0],[1,0.5,0,0,0],[1,0.75,0,0,0],[1,1,0,0,0]];fontSize=12;" parent="ptCPzutmmY7kmalORsYN-1" vertex="1">
          <mxGeometry x="1127.5" y="175" width="60" height="30" as="geometry" />
        </mxCell>
        <mxCell id="4zU_NHBIepmCl1VkYr-2-191" style="rounded=0;orthogonalLoop=1;jettySize=auto;html=1;exitX=0;exitY=0.75;exitDx=0;exitDy=0;entryX=1;entryY=1;entryDx=0;entryDy=0;endArrow=none;endFill=0;exitPerimeter=0;fontSize=12;" parent="ptCPzutmmY7kmalORsYN-1" source="4zU_NHBIepmCl1VkYr-2-190" target="4zU_NHBIepmCl1VkYr-2-186" edge="1">
          <mxGeometry relative="1" as="geometry" />
        </mxCell>
        <mxCell id="4zU_NHBIepmCl1VkYr-2-192" style="rounded=0;orthogonalLoop=1;jettySize=auto;html=1;exitX=0.43;exitY=0;exitDx=0;exitDy=0;entryX=0.613;entryY=1.034;entryDx=0;entryDy=0;entryPerimeter=0;endArrow=none;endFill=0;exitPerimeter=0;fontSize=12;" parent="ptCPzutmmY7kmalORsYN-1" source="4zU_NHBIepmCl1VkYr-2-190" target="4zU_NHBIepmCl1VkYr-2-188" edge="1">
          <mxGeometry relative="1" as="geometry">
            <mxPoint x="1127.5" y="230" as="sourcePoint" />
          </mxGeometry>
        </mxCell>
        <mxCell id="4zU_NHBIepmCl1VkYr-2-197" value="FOR" style="rhombus;whiteSpace=wrap;html=1;fontSize=12;" parent="ptCPzutmmY7kmalORsYN-1" vertex="1">
          <mxGeometry x="1285" y="280" width="75" height="80" as="geometry" />
        </mxCell>
        <mxCell id="4zU_NHBIepmCl1VkYr-2-200" value="" style="endArrow=none;html=1;rounded=0;exitX=0.5;exitY=1;exitDx=0;exitDy=0;entryX=0.5;entryY=0;entryDx=0;entryDy=0;edgeStyle=orthogonalEdgeStyle;entryPerimeter=0;fontSize=12;" parent="ptCPzutmmY7kmalORsYN-1" source="4zU_NHBIepmCl1VkYr-2-197" target="4zU_NHBIepmCl1VkYr-2-129" edge="1">
          <mxGeometry relative="1" as="geometry">
            <mxPoint x="1330" y="350" as="sourcePoint" />
            <mxPoint x="1330" y="410" as="targetPoint" />
          </mxGeometry>
        </mxCell>
        <mxCell id="4zU_NHBIepmCl1VkYr-2-201" value="1" style="resizable=0;html=1;whiteSpace=wrap;align=right;verticalAlign=bottom;fontSize=12;" parent="4zU_NHBIepmCl1VkYr-2-200" connectable="0" vertex="1">
          <mxGeometry x="1" relative="1" as="geometry">
            <mxPoint x="-6" y="-6" as="offset" />
          </mxGeometry>
        </mxCell>
        <mxCell id="4zU_NHBIepmCl1VkYr-2-202" value="&lt;b style=&quot;font-size: 12px;&quot;&gt;&lt;u style=&quot;font-size: 12px;&quot;&gt;dept_id&lt;/u&gt;&lt;/b&gt;" style="ellipse;whiteSpace=wrap;html=1;fontSize=12;" parent="ptCPzutmmY7kmalORsYN-1" vertex="1">
          <mxGeometry x="770" y="396.39" width="70" height="30" as="geometry" />
        </mxCell>
        <mxCell id="4zU_NHBIepmCl1VkYr-2-203" value="debt_name" style="ellipse;whiteSpace=wrap;html=1;fontSize=12;" parent="ptCPzutmmY7kmalORsYN-1" vertex="1">
          <mxGeometry x="865" y="368.89" width="80" height="30" as="geometry" />
        </mxCell>
        <mxCell id="4zU_NHBIepmCl1VkYr-2-204" style="rounded=0;orthogonalLoop=1;jettySize=auto;html=1;exitX=0.5;exitY=0;exitDx=0;exitDy=0;entryX=0.5;entryY=1;entryDx=0;entryDy=0;endArrow=none;endFill=0;fontSize=12;" parent="ptCPzutmmY7kmalORsYN-1" source="4zU_NHBIepmCl1VkYr-2-205" target="4zU_NHBIepmCl1VkYr-2-203" edge="1">
          <mxGeometry relative="1" as="geometry" />
        </mxCell>
        <mxCell id="4zU_NHBIepmCl1VkYr-2-205" value="Departments" style="whiteSpace=wrap;html=1;fontSize=12;" parent="ptCPzutmmY7kmalORsYN-1" vertex="1">
          <mxGeometry x="852.5" y="432.25" width="90" height="30" as="geometry" />
        </mxCell>
        <mxCell id="4zU_NHBIepmCl1VkYr-2-206" style="rounded=0;orthogonalLoop=1;jettySize=auto;html=1;exitX=0;exitY=0;exitDx=0;exitDy=0;entryX=1;entryY=1;entryDx=0;entryDy=0;endArrow=none;endFill=0;fontSize=12;" parent="ptCPzutmmY7kmalORsYN-1" source="4zU_NHBIepmCl1VkYr-2-205" target="4zU_NHBIepmCl1VkYr-2-202" edge="1">
          <mxGeometry relative="1" as="geometry" />
        </mxCell>
        <mxCell id="4zU_NHBIepmCl1VkYr-2-209" value="provided in" style="rhombus;whiteSpace=wrap;html=1;fontSize=12;" parent="ptCPzutmmY7kmalORsYN-1" vertex="1">
          <mxGeometry x="967.5" y="310" width="75" height="80" as="geometry" />
        </mxCell>
        <mxCell id="4zU_NHBIepmCl1VkYr-2-210" value="" style="shape=link;html=1;rounded=0;exitX=1;exitY=0.5;exitDx=0;exitDy=0;edgeStyle=orthogonalEdgeStyle;entryX=0.25;entryY=1;entryDx=0;entryDy=0;fontSize=12;" parent="ptCPzutmmY7kmalORsYN-1" source="4zU_NHBIepmCl1VkYr-2-209" target="4zU_NHBIepmCl1VkYr-2-190" edge="1">
          <mxGeometry relative="1" as="geometry">
            <mxPoint x="1134.33" y="237.5" as="sourcePoint" />
            <mxPoint x="1080.33" y="463.5" as="targetPoint" />
          </mxGeometry>
        </mxCell>
        <mxCell id="4zU_NHBIepmCl1VkYr-2-211" value="M" style="resizable=0;html=1;whiteSpace=wrap;align=right;verticalAlign=bottom;fontSize=12;" parent="4zU_NHBIepmCl1VkYr-2-210" connectable="0" vertex="1">
          <mxGeometry x="1" relative="1" as="geometry">
            <mxPoint x="-11" y="25" as="offset" />
          </mxGeometry>
        </mxCell>
        <mxCell id="4zU_NHBIepmCl1VkYr-2-198" value="" style="endArrow=none;html=1;rounded=0;exitX=0;exitY=0.5;exitDx=0;exitDy=0;entryX=1;entryY=0.5;entryDx=0;entryDy=0;edgeStyle=orthogonalEdgeStyle;fontSize=12;" parent="ptCPzutmmY7kmalORsYN-1" source="4zU_NHBIepmCl1VkYr-2-209" target="4zU_NHBIepmCl1VkYr-2-205" edge="1">
          <mxGeometry relative="1" as="geometry">
            <mxPoint x="897.44" y="377.5" as="sourcePoint" />
            <mxPoint x="747.44" y="322.5" as="targetPoint" />
          </mxGeometry>
        </mxCell>
        <mxCell id="4zU_NHBIepmCl1VkYr-2-199" value="1" style="resizable=0;html=1;whiteSpace=wrap;align=right;verticalAlign=bottom;fontSize=12;" parent="4zU_NHBIepmCl1VkYr-2-198" connectable="0" vertex="1">
          <mxGeometry x="1" relative="1" as="geometry">
            <mxPoint x="25" as="offset" />
          </mxGeometry>
        </mxCell>
        <mxCell id="4zU_NHBIepmCl1VkYr-2-214" value="" style="endArrow=none;html=1;rounded=0;exitX=0.5;exitY=0;exitDx=0;exitDy=0;entryX=0.75;entryY=1;entryDx=0;entryDy=0;edgeStyle=orthogonalEdgeStyle;fontSize=12;" parent="ptCPzutmmY7kmalORsYN-1" source="4zU_NHBIepmCl1VkYr-2-197" target="4zU_NHBIepmCl1VkYr-2-190" edge="1">
          <mxGeometry relative="1" as="geometry">
            <mxPoint x="1263" y="280" as="sourcePoint" />
            <mxPoint x="1263" y="220" as="targetPoint" />
          </mxGeometry>
        </mxCell>
        <mxCell id="4zU_NHBIepmCl1VkYr-2-215" value="1" style="resizable=0;html=1;whiteSpace=wrap;align=right;verticalAlign=bottom;fontSize=12;" parent="4zU_NHBIepmCl1VkYr-2-214" connectable="0" vertex="1">
          <mxGeometry x="1" relative="1" as="geometry">
            <mxPoint x="-6" y="25" as="offset" />
          </mxGeometry>
        </mxCell>
        <mxCell id="4zU_NHBIepmCl1VkYr-2-216" value="Title" style="ellipse;whiteSpace=wrap;html=1;fontSize=12;" parent="ptCPzutmmY7kmalORsYN-1" vertex="1">
          <mxGeometry x="1767.12" y="432.25" width="50" height="30" as="geometry" />
        </mxCell>
        <mxCell id="4zU_NHBIepmCl1VkYr-2-217" value="Notes" style="ellipse;whiteSpace=wrap;html=1;fontStyle=0;shadow=0;fontSize=12;" parent="ptCPzutmmY7kmalORsYN-1" vertex="1">
          <mxGeometry x="1920" y="432.25" width="60" height="30" as="geometry" />
        </mxCell>
        <mxCell id="4zU_NHBIepmCl1VkYr-2-218" style="rounded=0;orthogonalLoop=1;jettySize=auto;html=1;exitX=1;exitY=0.5;exitDx=0;exitDy=0;entryX=0;entryY=1;entryDx=0;entryDy=0;endArrow=none;endFill=0;fontSize=12;" parent="ptCPzutmmY7kmalORsYN-1" source="4zU_NHBIepmCl1VkYr-2-220" target="4zU_NHBIepmCl1VkYr-2-217" edge="1">
          <mxGeometry relative="1" as="geometry" />
        </mxCell>
        <mxCell id="4zU_NHBIepmCl1VkYr-2-220" value="Expiremnt" style="shape=ext;margin=3;double=1;whiteSpace=wrap;html=1;align=center;rounded=1;fontSize=12;" parent="ptCPzutmmY7kmalORsYN-1" vertex="1">
          <mxGeometry x="1832.5" y="485.25" width="80" height="30" as="geometry" />
        </mxCell>
        <mxCell id="4zU_NHBIepmCl1VkYr-2-221" style="rounded=0;orthogonalLoop=1;jettySize=auto;html=1;exitX=0;exitY=0.5;exitDx=0;exitDy=0;entryX=1;entryY=1;entryDx=0;entryDy=0;endArrow=none;endFill=0;fontSize=12;" parent="ptCPzutmmY7kmalORsYN-1" source="4zU_NHBIepmCl1VkYr-2-220" target="4zU_NHBIepmCl1VkYr-2-216" edge="1">
          <mxGeometry relative="1" as="geometry" />
        </mxCell>
        <mxCell id="4zU_NHBIepmCl1VkYr-2-222" value="&lt;span style=&quot;border-bottom: 1px dotted; font-size: 12px;&quot;&gt;rsrv_id&lt;/span&gt;" style="ellipse;whiteSpace=wrap;html=1;align=center;fontSize=12;" parent="ptCPzutmmY7kmalORsYN-1" vertex="1">
          <mxGeometry x="1842.5" y="415" width="60" height="30" as="geometry" />
        </mxCell>
        <mxCell id="4zU_NHBIepmCl1VkYr-2-219" style="rounded=0;orthogonalLoop=1;jettySize=auto;html=1;exitX=0.5;exitY=0;exitDx=0;exitDy=0;entryX=0.5;entryY=1;entryDx=0;entryDy=0;endArrow=none;endFill=0;fontSize=12;" parent="ptCPzutmmY7kmalORsYN-1" source="4zU_NHBIepmCl1VkYr-2-220" target="4zU_NHBIepmCl1VkYr-2-222" edge="1">
          <mxGeometry relative="1" as="geometry">
            <mxPoint x="1872.5" y="440" as="targetPoint" />
          </mxGeometry>
        </mxCell>
        <mxCell id="4zU_NHBIepmCl1VkYr-2-223" value="during" style="rhombus;whiteSpace=wrap;html=1;fontSize=12;" parent="ptCPzutmmY7kmalORsYN-1" vertex="1">
          <mxGeometry x="1682.55" y="540" width="75" height="80" as="geometry" />
        </mxCell>
        <mxCell id="4zU_NHBIepmCl1VkYr-2-224" value="" style="endArrow=none;html=1;rounded=0;exitX=0;exitY=0.5;exitDx=0;exitDy=0;entryX=1;entryY=0.75;entryDx=0;entryDy=0;edgeStyle=orthogonalEdgeStyle;entryPerimeter=0;fontSize=12;" parent="ptCPzutmmY7kmalORsYN-1" source="4zU_NHBIepmCl1VkYr-2-223" target="4zU_NHBIepmCl1VkYr-2-129" edge="1">
          <mxGeometry relative="1" as="geometry">
            <mxPoint x="1630.5" y="347.13" as="sourcePoint" />
            <mxPoint x="1697.5" y="503.13" as="targetPoint" />
          </mxGeometry>
        </mxCell>
        <mxCell id="4zU_NHBIepmCl1VkYr-2-225" value="1" style="resizable=0;html=1;whiteSpace=wrap;align=right;verticalAlign=bottom;fontSize=12;" parent="4zU_NHBIepmCl1VkYr-2-224" connectable="0" vertex="1">
          <mxGeometry x="1" relative="1" as="geometry">
            <mxPoint x="18" y="22" as="offset" />
          </mxGeometry>
        </mxCell>
        <mxCell id="4zU_NHBIepmCl1VkYr-2-228" value="" style="shape=link;html=1;rounded=0;exitX=1;exitY=0.5;exitDx=0;exitDy=0;edgeStyle=orthogonalEdgeStyle;entryX=0.5;entryY=1;entryDx=0;entryDy=0;fontSize=12;" parent="ptCPzutmmY7kmalORsYN-1" source="4zU_NHBIepmCl1VkYr-2-223" target="4zU_NHBIepmCl1VkYr-2-220" edge="1">
          <mxGeometry relative="1" as="geometry">
            <mxPoint x="1879.94" y="530" as="sourcePoint" />
            <mxPoint x="1825.94" y="756" as="targetPoint" />
          </mxGeometry>
        </mxCell>
        <mxCell id="4zU_NHBIepmCl1VkYr-2-229" value="1" style="resizable=0;html=1;whiteSpace=wrap;align=right;verticalAlign=bottom;fontSize=12;" parent="4zU_NHBIepmCl1VkYr-2-228" connectable="0" vertex="1">
          <mxGeometry x="1" relative="1" as="geometry">
            <mxPoint x="-7" y="25" as="offset" />
          </mxGeometry>
        </mxCell>
        <mxCell id="4zU_NHBIepmCl1VkYr-2-230" value="&lt;b style=&quot;font-size: 12px;&quot;&gt;&lt;u style=&quot;font-size: 12px;&quot;&gt;equip_id&lt;/u&gt;&lt;/b&gt;" style="ellipse;whiteSpace=wrap;html=1;fontSize=12;" parent="ptCPzutmmY7kmalORsYN-1" vertex="1">
          <mxGeometry x="450.5" y="457.59" width="70" height="30" as="geometry" />
        </mxCell>
        <mxCell id="4zU_NHBIepmCl1VkYr-2-231" value="model" style="ellipse;whiteSpace=wrap;html=1;fontSize=12;" parent="ptCPzutmmY7kmalORsYN-1" vertex="1">
          <mxGeometry x="490.5" y="412.84" width="60" height="30" as="geometry" />
        </mxCell>
        <mxCell id="4zU_NHBIepmCl1VkYr-2-232" value="Name" style="ellipse;whiteSpace=wrap;html=1;fontSize=12;" parent="ptCPzutmmY7kmalORsYN-1" vertex="1">
          <mxGeometry x="430.5" y="498.59" width="60" height="30" as="geometry" />
        </mxCell>
        <mxCell id="4zU_NHBIepmCl1VkYr-2-233" style="rounded=0;orthogonalLoop=1;jettySize=auto;html=1;exitX=0.25;exitY=0;exitDx=0;exitDy=0;entryX=0.5;entryY=1;entryDx=0;entryDy=0;endArrow=none;endFill=0;fontSize=12;" parent="ptCPzutmmY7kmalORsYN-1" source="4zU_NHBIepmCl1VkYr-2-234" target="4zU_NHBIepmCl1VkYr-2-231" edge="1">
          <mxGeometry relative="1" as="geometry" />
        </mxCell>
        <mxCell id="4zU_NHBIepmCl1VkYr-2-234" value="Equipment" style="whiteSpace=wrap;html=1;fontSize=12;" parent="ptCPzutmmY7kmalORsYN-1" vertex="1">
          <mxGeometry x="540.5" y="511.09" width="80" height="30" as="geometry" />
        </mxCell>
        <mxCell id="4zU_NHBIepmCl1VkYr-2-235" style="rounded=0;orthogonalLoop=1;jettySize=auto;html=1;exitX=0;exitY=0.25;exitDx=0;exitDy=0;entryX=0.707;entryY=0.979;entryDx=0;entryDy=0;endArrow=none;endFill=0;entryPerimeter=0;fontSize=12;" parent="ptCPzutmmY7kmalORsYN-1" source="4zU_NHBIepmCl1VkYr-2-234" target="4zU_NHBIepmCl1VkYr-2-230" edge="1">
          <mxGeometry relative="1" as="geometry" />
        </mxCell>
        <mxCell id="4zU_NHBIepmCl1VkYr-2-236" style="rounded=0;orthogonalLoop=1;jettySize=auto;html=1;exitX=0;exitY=0.75;exitDx=0;exitDy=0;entryX=0.98;entryY=0.712;entryDx=0;entryDy=0;endArrow=none;endFill=0;entryPerimeter=0;fontSize=12;" parent="ptCPzutmmY7kmalORsYN-1" source="4zU_NHBIepmCl1VkYr-2-234" target="4zU_NHBIepmCl1VkYr-2-232" edge="1">
          <mxGeometry relative="1" as="geometry" />
        </mxCell>
        <mxCell id="4zU_NHBIepmCl1VkYr-2-241" value="HAS" style="rhombus;whiteSpace=wrap;html=1;fontSize=12;" parent="ptCPzutmmY7kmalORsYN-1" vertex="1">
          <mxGeometry x="620.5" y="528.59" width="75" height="80" as="geometry" />
        </mxCell>
        <mxCell id="4zU_NHBIepmCl1VkYr-2-242" value="" style="shape=link;html=1;rounded=0;exitX=1;exitY=0.5;exitDx=0;exitDy=0;edgeStyle=orthogonalEdgeStyle;entryX=0;entryY=0;entryDx=0;entryDy=0;entryPerimeter=0;fontSize=12;" parent="ptCPzutmmY7kmalORsYN-1" source="4zU_NHBIepmCl1VkYr-2-241" target="4zU_NHBIepmCl1VkYr-2-129" edge="1">
          <mxGeometry relative="1" as="geometry">
            <mxPoint x="967.6199999999999" y="555" as="sourcePoint" />
            <mxPoint x="1067.62" y="410" as="targetPoint" />
          </mxGeometry>
        </mxCell>
        <mxCell id="4zU_NHBIepmCl1VkYr-2-243" value="M" style="resizable=0;html=1;whiteSpace=wrap;align=right;verticalAlign=bottom;fontSize=12;" parent="4zU_NHBIepmCl1VkYr-2-242" connectable="0" vertex="1">
          <mxGeometry x="1" relative="1" as="geometry">
            <mxPoint x="-11" y="16" as="offset" />
          </mxGeometry>
        </mxCell>
        <mxCell id="4zU_NHBIepmCl1VkYr-2-246" value="" style="endArrow=none;html=1;rounded=0;exitX=0;exitY=0.5;exitDx=0;exitDy=0;entryX=0.75;entryY=1;entryDx=0;entryDy=0;edgeStyle=orthogonalEdgeStyle;fontSize=12;" parent="ptCPzutmmY7kmalORsYN-1" source="4zU_NHBIepmCl1VkYr-2-241" target="4zU_NHBIepmCl1VkYr-2-234" edge="1">
          <mxGeometry relative="1" as="geometry">
            <mxPoint x="620.5" y="587.59" as="sourcePoint" />
            <mxPoint x="525.5" y="547.59" as="targetPoint" />
          </mxGeometry>
        </mxCell>
        <mxCell id="4zU_NHBIepmCl1VkYr-2-247" value="1" style="resizable=0;html=1;whiteSpace=wrap;align=right;verticalAlign=bottom;fontSize=12;" parent="4zU_NHBIepmCl1VkYr-2-246" connectable="0" vertex="1">
          <mxGeometry x="1" relative="1" as="geometry">
            <mxPoint x="-1" y="23" as="offset" />
          </mxGeometry>
        </mxCell>
        <mxCell id="4zU_NHBIepmCl1VkYr-2-248" value="&lt;b style=&quot;font-size: 12px;&quot;&gt;&lt;u style=&quot;font-size: 12px;&quot;&gt;maint_id&lt;/u&gt;&lt;/b&gt;" style="ellipse;whiteSpace=wrap;html=1;fontSize=12;" parent="ptCPzutmmY7kmalORsYN-1" vertex="1">
          <mxGeometry x="17.5" y="455.25" width="70" height="30" as="geometry" />
        </mxCell>
        <mxCell id="4zU_NHBIepmCl1VkYr-2-252" value="Maintenances" style="whiteSpace=wrap;html=1;fontSize=12;" parent="ptCPzutmmY7kmalORsYN-1" vertex="1">
          <mxGeometry x="90" y="522" width="100" height="30" as="geometry" />
        </mxCell>
        <mxCell id="4zU_NHBIepmCl1VkYr-2-253" style="rounded=0;orthogonalLoop=1;jettySize=auto;html=1;exitX=0;exitY=0;exitDx=0;exitDy=0;entryX=0.5;entryY=1;entryDx=0;entryDy=0;endArrow=none;endFill=0;fontSize=12;" parent="ptCPzutmmY7kmalORsYN-1" source="4zU_NHBIepmCl1VkYr-2-252" target="4zU_NHBIepmCl1VkYr-2-248" edge="1">
          <mxGeometry relative="1" as="geometry">
            <Array as="points" />
          </mxGeometry>
        </mxCell>
        <mxCell id="4zU_NHBIepmCl1VkYr-2-257" value="Maintenance_History" style="shape=ext;margin=3;double=1;whiteSpace=wrap;html=1;align=center;rounded=1;fontSize=12;" parent="ptCPzutmmY7kmalORsYN-1" vertex="1">
          <mxGeometry x="12.5" y="235" width="140" height="30" as="geometry" />
        </mxCell>
        <mxCell id="4zU_NHBIepmCl1VkYr-2-259" value="Note" style="ellipse;whiteSpace=wrap;html=1;fontSize=12;" parent="ptCPzutmmY7kmalORsYN-1" vertex="1">
          <mxGeometry x="172.5" y="200" width="50" height="30" as="geometry" />
        </mxCell>
        <mxCell id="4zU_NHBIepmCl1VkYr-2-260" style="rounded=0;orthogonalLoop=1;jettySize=auto;html=1;entryX=0;entryY=1;entryDx=0;entryDy=0;endArrow=none;endFill=0;exitX=1;exitY=0.25;exitDx=0;exitDy=0;fontSize=12;" parent="ptCPzutmmY7kmalORsYN-1" source="4zU_NHBIepmCl1VkYr-2-257" target="4zU_NHBIepmCl1VkYr-2-259" edge="1">
          <mxGeometry relative="1" as="geometry">
            <mxPoint x="142.5" y="250" as="sourcePoint" />
          </mxGeometry>
        </mxCell>
        <mxCell id="4zU_NHBIepmCl1VkYr-2-262" value="HAS" style="rhombus;whiteSpace=wrap;html=1;fontSize=12;" parent="ptCPzutmmY7kmalORsYN-1" vertex="1">
          <mxGeometry x="70" y="343.89" width="75" height="80" as="geometry" />
        </mxCell>
        <mxCell id="4zU_NHBIepmCl1VkYr-2-264" value="" style="shape=link;html=1;rounded=0;exitX=0.5;exitY=0;exitDx=0;exitDy=0;edgeStyle=orthogonalEdgeStyle;entryX=0.5;entryY=1;entryDx=0;entryDy=0;fontSize=12;" parent="ptCPzutmmY7kmalORsYN-1" source="4zU_NHBIepmCl1VkYr-2-262" target="4zU_NHBIepmCl1VkYr-2-257" edge="1">
          <mxGeometry relative="1" as="geometry">
            <mxPoint x="130" y="301.20000000000005" as="sourcePoint" />
            <mxPoint x="524" y="240.20000000000005" as="targetPoint" />
          </mxGeometry>
        </mxCell>
        <mxCell id="4zU_NHBIepmCl1VkYr-2-265" value="1" style="resizable=0;html=1;whiteSpace=wrap;align=right;verticalAlign=bottom;fontSize=12;" parent="4zU_NHBIepmCl1VkYr-2-264" connectable="0" vertex="1">
          <mxGeometry x="1" relative="1" as="geometry">
            <mxPoint x="-7" y="20" as="offset" />
          </mxGeometry>
        </mxCell>
        <mxCell id="4zU_NHBIepmCl1VkYr-2-268" value="" style="endArrow=none;html=1;rounded=0;exitX=0.5;exitY=1;exitDx=0;exitDy=0;entryX=0.5;entryY=0;entryDx=0;entryDy=0;edgeStyle=orthogonalEdgeStyle;fontSize=12;" parent="ptCPzutmmY7kmalORsYN-1" source="4zU_NHBIepmCl1VkYr-2-262" target="4zU_NHBIepmCl1VkYr-2-252" edge="1">
          <mxGeometry relative="1" as="geometry">
            <mxPoint x="343" y="320" as="sourcePoint" />
            <mxPoint x="190" y="245" as="targetPoint" />
          </mxGeometry>
        </mxCell>
        <mxCell id="4zU_NHBIepmCl1VkYr-2-269" value="1" style="resizable=0;html=1;whiteSpace=wrap;align=right;verticalAlign=bottom;fontSize=12;" parent="4zU_NHBIepmCl1VkYr-2-268" connectable="0" vertex="1">
          <mxGeometry x="1" relative="1" as="geometry">
            <mxPoint x="-5" y="-6" as="offset" />
          </mxGeometry>
        </mxCell>
        <mxCell id="4zU_NHBIepmCl1VkYr-2-272" style="rounded=0;orthogonalLoop=1;jettySize=auto;html=1;exitX=0;exitY=0.75;exitDx=0;exitDy=0;entryX=1;entryY=1;entryDx=0;entryDy=0;endArrow=none;endFill=0;fontSize=12;" parent="ptCPzutmmY7kmalORsYN-1" source="4zU_NHBIepmCl1VkYr-2-252" target="4zU_NHBIepmCl1VkYr-2-273" edge="1">
          <mxGeometry relative="1" as="geometry">
            <mxPoint x="120" y="420" as="sourcePoint" />
            <Array as="points" />
          </mxGeometry>
        </mxCell>
        <mxCell id="4zU_NHBIepmCl1VkYr-2-273" value="Note" style="ellipse;whiteSpace=wrap;html=1;fontSize=12;" parent="ptCPzutmmY7kmalORsYN-1" vertex="1">
          <mxGeometry x="-25" y="485.75" width="50" height="30" as="geometry" />
        </mxCell>
        <mxCell id="4zU_NHBIepmCl1VkYr-2-274" value="needs" style="rhombus;whiteSpace=wrap;html=1;fontSize=12;" parent="ptCPzutmmY7kmalORsYN-1" vertex="1">
          <mxGeometry x="272.5" y="545.75" width="75" height="80" as="geometry" />
        </mxCell>
        <mxCell id="4zU_NHBIepmCl1VkYr-2-275" value="" style="shape=link;html=1;rounded=0;exitX=0;exitY=0.5;exitDx=0;exitDy=0;edgeStyle=orthogonalEdgeStyle;entryX=1;entryY=0.5;entryDx=0;entryDy=0;fontSize=12;" parent="ptCPzutmmY7kmalORsYN-1" source="4zU_NHBIepmCl1VkYr-2-274" target="4zU_NHBIepmCl1VkYr-2-252" edge="1">
          <mxGeometry relative="1" as="geometry">
            <mxPoint x="360.4499999999998" y="645" as="sourcePoint" />
            <mxPoint x="337.4499999999998" y="570" as="targetPoint" />
          </mxGeometry>
        </mxCell>
        <mxCell id="4zU_NHBIepmCl1VkYr-2-276" value="M" style="resizable=0;html=1;whiteSpace=wrap;align=right;verticalAlign=bottom;fontSize=12;" parent="4zU_NHBIepmCl1VkYr-2-275" connectable="0" vertex="1">
          <mxGeometry x="1" relative="1" as="geometry">
            <mxPoint x="20" y="23" as="offset" />
          </mxGeometry>
        </mxCell>
        <mxCell id="4zU_NHBIepmCl1VkYr-2-277" value="" style="endArrow=none;html=1;rounded=0;exitX=1;exitY=0.5;exitDx=0;exitDy=0;entryX=0.25;entryY=1;entryDx=0;entryDy=0;edgeStyle=orthogonalEdgeStyle;fontSize=12;" parent="ptCPzutmmY7kmalORsYN-1" source="4zU_NHBIepmCl1VkYr-2-274" target="4zU_NHBIepmCl1VkYr-2-234" edge="1">
          <mxGeometry relative="1" as="geometry">
            <mxPoint x="590" y="646.5" as="sourcePoint" />
            <mxPoint x="450" y="600.5" as="targetPoint" />
          </mxGeometry>
        </mxCell>
        <mxCell id="4zU_NHBIepmCl1VkYr-2-278" value="1" style="resizable=0;html=1;whiteSpace=wrap;align=right;verticalAlign=bottom;fontSize=12;" parent="4zU_NHBIepmCl1VkYr-2-277" connectable="0" vertex="1">
          <mxGeometry x="1" relative="1" as="geometry">
            <mxPoint x="-6" y="25" as="offset" />
          </mxGeometry>
        </mxCell>
        <mxCell id="4zU_NHBIepmCl1VkYr-2-279" value="EquipCategories" style="whiteSpace=wrap;html=1;fontSize=12;" parent="ptCPzutmmY7kmalORsYN-1" vertex="1">
          <mxGeometry x="321.5" y="265" width="100" height="30" as="geometry" />
        </mxCell>
        <mxCell id="4zU_NHBIepmCl1VkYr-2-280" value="&lt;span style=&quot;font-size: 12px;&quot;&gt;&lt;span style=&quot;font-size: 12px;&quot;&gt;Category_id&lt;/span&gt;&lt;/span&gt;" style="ellipse;whiteSpace=wrap;html=1;fontStyle=5;shadow=0;fontSize=12;" parent="ptCPzutmmY7kmalORsYN-1" vertex="1">
          <mxGeometry x="423" y="195" width="90" height="30" as="geometry" />
        </mxCell>
        <mxCell id="4zU_NHBIepmCl1VkYr-2-281" style="rounded=0;orthogonalLoop=1;jettySize=auto;html=1;exitX=0.75;exitY=0;exitDx=0;exitDy=0;entryX=0;entryY=1;entryDx=0;entryDy=0;endArrow=none;endFill=0;fontSize=12;" parent="ptCPzutmmY7kmalORsYN-1" source="4zU_NHBIepmCl1VkYr-2-279" target="4zU_NHBIepmCl1VkYr-2-280" edge="1">
          <mxGeometry relative="1" as="geometry">
            <mxPoint x="376.5" y="252.5" as="sourcePoint" />
          </mxGeometry>
        </mxCell>
        <mxCell id="4zU_NHBIepmCl1VkYr-2-282" value="Category_Name" style="ellipse;whiteSpace=wrap;html=1;fontSize=12;" parent="ptCPzutmmY7kmalORsYN-1" vertex="1">
          <mxGeometry x="255" y="195" width="110" height="30" as="geometry" />
        </mxCell>
        <mxCell id="4zU_NHBIepmCl1VkYr-2-283" style="rounded=0;orthogonalLoop=1;jettySize=auto;html=1;exitX=0.25;exitY=0;exitDx=0;exitDy=0;entryX=0.5;entryY=1;entryDx=0;entryDy=0;endArrow=none;endFill=0;fontSize=12;" parent="ptCPzutmmY7kmalORsYN-1" source="4zU_NHBIepmCl1VkYr-2-279" target="4zU_NHBIepmCl1VkYr-2-282" edge="1">
          <mxGeometry relative="1" as="geometry">
            <mxPoint x="314" y="267.5" as="sourcePoint" />
          </mxGeometry>
        </mxCell>
        <mxCell id="4zU_NHBIepmCl1VkYr-2-284" value="HAS" style="rhombus;whiteSpace=wrap;html=1;fontSize=12;" parent="ptCPzutmmY7kmalORsYN-1" vertex="1">
          <mxGeometry x="346.5" y="365" width="75" height="80" as="geometry" />
        </mxCell>
        <mxCell id="4zU_NHBIepmCl1VkYr-2-285" value="" style="shape=link;html=1;rounded=0;exitX=1;exitY=0.5;exitDx=0;exitDy=0;entryX=0.5;entryY=0;entryDx=0;entryDy=0;fontSize=12;edgeStyle=orthogonalEdgeStyle;" parent="ptCPzutmmY7kmalORsYN-1" source="4zU_NHBIepmCl1VkYr-2-284" target="4zU_NHBIepmCl1VkYr-2-234" edge="1">
          <mxGeometry relative="1" as="geometry">
            <mxPoint x="645" y="320" as="sourcePoint" />
            <mxPoint x="622" y="245" as="targetPoint" />
          </mxGeometry>
        </mxCell>
        <mxCell id="4zU_NHBIepmCl1VkYr-2-286" value="1" style="resizable=0;html=1;whiteSpace=wrap;align=right;verticalAlign=bottom;fontSize=12;" parent="4zU_NHBIepmCl1VkYr-2-285" connectable="0" vertex="1">
          <mxGeometry x="1" relative="1" as="geometry">
            <mxPoint x="-7" y="-7" as="offset" />
          </mxGeometry>
        </mxCell>
        <mxCell id="4zU_NHBIepmCl1VkYr-2-287" value="" style="endArrow=none;html=1;rounded=0;exitX=0.5;exitY=0;exitDx=0;exitDy=0;entryX=0.5;entryY=1;entryDx=0;entryDy=0;edgeStyle=orthogonalEdgeStyle;fontSize=12;" parent="ptCPzutmmY7kmalORsYN-1" source="4zU_NHBIepmCl1VkYr-2-284" target="4zU_NHBIepmCl1VkYr-2-279" edge="1">
          <mxGeometry relative="1" as="geometry">
            <mxPoint x="427.94000000000005" y="310" as="sourcePoint" />
            <mxPoint x="469.94000000000005" y="442" as="targetPoint" />
          </mxGeometry>
        </mxCell>
        <mxCell id="4zU_NHBIepmCl1VkYr-2-288" value="1" style="resizable=0;html=1;whiteSpace=wrap;align=right;verticalAlign=bottom;fontSize=12;" parent="4zU_NHBIepmCl1VkYr-2-287" connectable="0" vertex="1">
          <mxGeometry x="1" relative="1" as="geometry">
            <mxPoint x="-3" y="20" as="offset" />
          </mxGeometry>
        </mxCell>
        <mxCell id="4zU_NHBIepmCl1VkYr-2-289" value="submission_date" style="ellipse;whiteSpace=wrap;html=1;align=center;dashed=1;fontSize=12;" parent="ptCPzutmmY7kmalORsYN-1" vertex="1">
          <mxGeometry x="255" y="670" width="110" height="30" as="geometry" />
        </mxCell>
        <mxCell id="4zU_NHBIepmCl1VkYr-2-290" style="rounded=0;orthogonalLoop=1;jettySize=auto;html=1;exitX=0.5;exitY=1;exitDx=0;exitDy=0;entryX=0.5;entryY=0;entryDx=0;entryDy=0;endArrow=none;endFill=0;fontSize=12;" parent="ptCPzutmmY7kmalORsYN-1" source="4zU_NHBIepmCl1VkYr-2-274" target="4zU_NHBIepmCl1VkYr-2-289" edge="1">
          <mxGeometry relative="1" as="geometry">
            <mxPoint x="277.5" y="655" as="sourcePoint" />
            <mxPoint x="222.5" y="475.0000000000001" as="targetPoint" />
          </mxGeometry>
        </mxCell>
        <mxCell id="4zU_NHBIepmCl1VkYr-2-291" value="&lt;b style=&quot;font-size: 12px;&quot;&gt;&lt;u style=&quot;font-size: 12px;&quot;&gt;lab_id&lt;/u&gt;&lt;/b&gt;" style="ellipse;whiteSpace=wrap;html=1;fontSize=12;" parent="ptCPzutmmY7kmalORsYN-1" vertex="1">
          <mxGeometry x="330.89" y="874.06" width="60" height="30" as="geometry" />
        </mxCell>
        <mxCell id="4zU_NHBIepmCl1VkYr-2-292" value="Labs" style="whiteSpace=wrap;html=1;fontSize=12;" parent="ptCPzutmmY7kmalORsYN-1" vertex="1">
          <mxGeometry x="335.89" y="958.1299999999999" width="50" height="30" as="geometry" />
        </mxCell>
        <mxCell id="4zU_NHBIepmCl1VkYr-2-293" style="rounded=0;orthogonalLoop=1;jettySize=auto;html=1;exitX=0.5;exitY=0;exitDx=0;exitDy=0;entryX=0.5;entryY=1;entryDx=0;entryDy=0;endArrow=none;endFill=0;fontSize=12;" parent="ptCPzutmmY7kmalORsYN-1" source="4zU_NHBIepmCl1VkYr-2-292" target="4zU_NHBIepmCl1VkYr-2-291" edge="1">
          <mxGeometry relative="1" as="geometry" />
        </mxCell>
        <mxCell id="4zU_NHBIepmCl1VkYr-2-298" value="HAS" style="rhombus;whiteSpace=wrap;html=1;fontSize=12;" parent="ptCPzutmmY7kmalORsYN-1" vertex="1">
          <mxGeometry x="567.5" y="734.06" width="75" height="80" as="geometry" />
        </mxCell>
        <mxCell id="4zU_NHBIepmCl1VkYr-2-299" value="" style="shape=link;html=1;rounded=0;exitX=0.5;exitY=0;exitDx=0;exitDy=0;edgeStyle=orthogonalEdgeStyle;entryX=0.5;entryY=1;entryDx=0;entryDy=0;fontSize=12;" parent="ptCPzutmmY7kmalORsYN-1" source="4zU_NHBIepmCl1VkYr-2-298" target="4zU_NHBIepmCl1VkYr-2-234" edge="1">
          <mxGeometry relative="1" as="geometry">
            <mxPoint x="820" y="700.19" as="sourcePoint" />
            <mxPoint x="660" y="651.19" as="targetPoint" />
          </mxGeometry>
        </mxCell>
        <mxCell id="4zU_NHBIepmCl1VkYr-2-300" value="M" style="resizable=0;html=1;whiteSpace=wrap;align=right;verticalAlign=bottom;fontSize=12;" parent="4zU_NHBIepmCl1VkYr-2-299" connectable="0" vertex="1">
          <mxGeometry x="1" relative="1" as="geometry">
            <mxPoint x="-3" y="23" as="offset" />
          </mxGeometry>
        </mxCell>
        <mxCell id="4zU_NHBIepmCl1VkYr-2-301" value="" style="shape=link;html=1;rounded=0;exitX=0.5;exitY=1;exitDx=0;exitDy=0;edgeStyle=orthogonalEdgeStyle;entryX=1;entryY=0.25;entryDx=0;entryDy=0;fontSize=12;" parent="ptCPzutmmY7kmalORsYN-1" source="4zU_NHBIepmCl1VkYr-2-298" target="4zU_NHBIepmCl1VkYr-2-292" edge="1">
          <mxGeometry relative="1" as="geometry">
            <mxPoint x="618.5" y="939.5" as="sourcePoint" />
            <mxPoint x="618.5" y="730.5" as="targetPoint" />
          </mxGeometry>
        </mxCell>
        <mxCell id="4zU_NHBIepmCl1VkYr-2-302" value="1" style="resizable=0;html=1;whiteSpace=wrap;align=right;verticalAlign=bottom;fontSize=12;" parent="4zU_NHBIepmCl1VkYr-2-301" connectable="0" vertex="1">
          <mxGeometry x="1" relative="1" as="geometry">
            <mxPoint x="19" y="-5" as="offset" />
          </mxGeometry>
        </mxCell>
        <mxCell id="4zU_NHBIepmCl1VkYr-2-303" value="&lt;u style=&quot;font-size: 12px;&quot;&gt;&lt;b style=&quot;font-size: 12px;&quot;&gt;Dr_id&lt;/b&gt;&lt;/u&gt;" style="ellipse;whiteSpace=wrap;html=1;fontSize=12;" parent="ptCPzutmmY7kmalORsYN-1" vertex="1">
          <mxGeometry x="1717.12" y="1117" width="50" height="30" as="geometry" />
        </mxCell>
        <mxCell id="4zU_NHBIepmCl1VkYr-2-305" value="Doctors" style="whiteSpace=wrap;html=1;fontSize=12;" parent="ptCPzutmmY7kmalORsYN-1" vertex="1">
          <mxGeometry x="1787.5" y="1163.43" width="125" height="30" as="geometry" />
        </mxCell>
        <mxCell id="4zU_NHBIepmCl1VkYr-2-306" style="rounded=0;orthogonalLoop=1;jettySize=auto;html=1;exitX=0;exitY=0.25;exitDx=0;exitDy=0;entryX=1;entryY=1;entryDx=0;entryDy=0;endArrow=none;endFill=0;fontSize=12;" parent="ptCPzutmmY7kmalORsYN-1" source="4zU_NHBIepmCl1VkYr-2-305" target="4zU_NHBIepmCl1VkYr-2-303" edge="1">
          <mxGeometry relative="1" as="geometry" />
        </mxCell>
        <mxCell id="4zU_NHBIepmCl1VkYr-2-308" style="rounded=0;orthogonalLoop=1;jettySize=auto;html=1;exitX=0.75;exitY=1;exitDx=0;exitDy=0;endArrow=none;endFill=0;entryX=0.5;entryY=1;entryDx=0;entryDy=0;fontSize=12;" parent="ptCPzutmmY7kmalORsYN-1" source="4zU_NHBIepmCl1VkYr-2-305" target="4zU_NHBIepmCl1VkYr-2-309" edge="1">
          <mxGeometry relative="1" as="geometry">
            <mxPoint x="1795" y="1158.93" as="sourcePoint" />
            <mxPoint x="1815" y="1123.93" as="targetPoint" />
          </mxGeometry>
        </mxCell>
        <mxCell id="4zU_NHBIepmCl1VkYr-2-309" value="Dr_Name" style="ellipse;whiteSpace=wrap;html=1;fontSize=12;" parent="ptCPzutmmY7kmalORsYN-1" vertex="1">
          <mxGeometry x="1890" y="1224.55" width="70" height="30" as="geometry" />
        </mxCell>
        <mxCell id="4zU_NHBIepmCl1VkYr-2-314" style="rounded=0;orthogonalLoop=1;jettySize=auto;html=1;exitX=0.18;exitY=0.968;exitDx=0;exitDy=0;entryX=1;entryY=1;entryDx=0;entryDy=0;endArrow=none;endFill=0;fontSize=12;exitPerimeter=0;" parent="ptCPzutmmY7kmalORsYN-1" source="4zU_NHBIepmCl1VkYr-2-305" target="4zU_NHBIepmCl1VkYr-2-315" edge="1">
          <mxGeometry relative="1" as="geometry">
            <mxPoint x="1848.25" y="1175.42" as="sourcePoint" />
          </mxGeometry>
        </mxCell>
        <mxCell id="4zU_NHBIepmCl1VkYr-2-315" value="Hire_Date" style="ellipse;whiteSpace=wrap;html=1;fontSize=12;" parent="ptCPzutmmY7kmalORsYN-1" vertex="1">
          <mxGeometry x="1752.5" y="1235.43" width="80" height="31.12" as="geometry" />
        </mxCell>
        <mxCell id="4zU_NHBIepmCl1VkYr-2-316" value="HAS" style="rhombus;whiteSpace=wrap;html=1;fontSize=12;" parent="ptCPzutmmY7kmalORsYN-1" vertex="1">
          <mxGeometry x="1812" y="1318" width="75" height="80" as="geometry" />
        </mxCell>
        <mxCell id="4zU_NHBIepmCl1VkYr-2-317" value="" style="endArrow=none;html=1;rounded=0;edgeStyle=orthogonalEdgeStyle;entryX=0.5;entryY=1;entryDx=0;entryDy=0;fontSize=12;" parent="ptCPzutmmY7kmalORsYN-1" target="4zU_NHBIepmCl1VkYr-2-305" edge="1">
          <mxGeometry relative="1" as="geometry">
            <mxPoint x="1849" y="1320" as="sourcePoint" />
            <mxPoint x="1850" y="1190" as="targetPoint" />
          </mxGeometry>
        </mxCell>
        <mxCell id="4zU_NHBIepmCl1VkYr-2-318" value="1" style="resizable=0;html=1;whiteSpace=wrap;align=right;verticalAlign=bottom;fontSize=12;" parent="4zU_NHBIepmCl1VkYr-2-317" connectable="0" vertex="1">
          <mxGeometry x="1" relative="1" as="geometry">
            <mxPoint x="15" y="27" as="offset" />
          </mxGeometry>
        </mxCell>
        <mxCell id="4zU_NHBIepmCl1VkYr-2-319" value="&lt;b style=&quot;font-size: 12px;&quot;&gt;&lt;u style=&quot;font-size: 12px;&quot;&gt;Staff_id&lt;/u&gt;&lt;/b&gt;" style="ellipse;whiteSpace=wrap;html=1;fontSize=12;" parent="ptCPzutmmY7kmalORsYN-1" vertex="1">
          <mxGeometry x="835" y="1193.43" width="70" height="30" as="geometry" />
        </mxCell>
        <mxCell id="4zU_NHBIepmCl1VkYr-2-320" value="LabStaff" style="whiteSpace=wrap;html=1;fontSize=12;" parent="ptCPzutmmY7kmalORsYN-1" vertex="1">
          <mxGeometry x="942.5" y="1261.55" width="70" height="30" as="geometry" />
        </mxCell>
        <mxCell id="4zU_NHBIepmCl1VkYr-2-321" style="rounded=0;orthogonalLoop=1;jettySize=auto;html=1;exitX=0;exitY=0.25;exitDx=0;exitDy=0;entryX=1;entryY=1;entryDx=0;entryDy=0;endArrow=none;endFill=0;fontSize=12;" parent="ptCPzutmmY7kmalORsYN-1" source="4zU_NHBIepmCl1VkYr-2-320" target="4zU_NHBIepmCl1VkYr-2-319" edge="1">
          <mxGeometry relative="1" as="geometry" />
        </mxCell>
        <mxCell id="4zU_NHBIepmCl1VkYr-2-322" style="rounded=0;orthogonalLoop=1;jettySize=auto;html=1;exitX=0.25;exitY=0;exitDx=0;exitDy=0;endArrow=none;endFill=0;entryX=0.5;entryY=1;entryDx=0;entryDy=0;fontSize=12;" parent="ptCPzutmmY7kmalORsYN-1" source="4zU_NHBIepmCl1VkYr-2-320" target="4zU_NHBIepmCl1VkYr-2-323" edge="1">
          <mxGeometry relative="1" as="geometry">
            <mxPoint x="951.3000000000002" y="1264.49" as="sourcePoint" />
            <mxPoint x="971.3" y="1229.49" as="targetPoint" />
          </mxGeometry>
        </mxCell>
        <mxCell id="4zU_NHBIepmCl1VkYr-2-323" value="Staff_Name" style="ellipse;whiteSpace=wrap;html=1;fontSize=12;" parent="ptCPzutmmY7kmalORsYN-1" vertex="1">
          <mxGeometry x="877.1199999999999" y="1155.75" width="90" height="30" as="geometry" />
        </mxCell>
        <mxCell id="4zU_NHBIepmCl1VkYr-2-328" style="rounded=0;orthogonalLoop=1;jettySize=auto;html=1;exitX=0;exitY=0.75;exitDx=0;exitDy=0;entryX=1;entryY=1;entryDx=0;entryDy=0;endArrow=none;endFill=0;fontSize=12;" parent="ptCPzutmmY7kmalORsYN-1" source="4zU_NHBIepmCl1VkYr-2-320" target="4zU_NHBIepmCl1VkYr-2-329" edge="1">
          <mxGeometry relative="1" as="geometry">
            <mxPoint x="1033.55" y="1253.25" as="sourcePoint" />
          </mxGeometry>
        </mxCell>
        <mxCell id="4zU_NHBIepmCl1VkYr-2-329" value="Hire_Date" style="ellipse;whiteSpace=wrap;html=1;fontSize=12;" parent="ptCPzutmmY7kmalORsYN-1" vertex="1">
          <mxGeometry x="810" y="1236.55" width="80" height="30" as="geometry" />
        </mxCell>
        <mxCell id="4zU_NHBIepmCl1VkYr-2-330" value="HAS" style="rhombus;whiteSpace=wrap;html=1;fontSize=12;" parent="ptCPzutmmY7kmalORsYN-1" vertex="1">
          <mxGeometry x="982" y="1349" width="75" height="80" as="geometry" />
        </mxCell>
        <mxCell id="4zU_NHBIepmCl1VkYr-2-331" value="" style="endArrow=none;html=1;rounded=0;exitX=0.5;exitY=0;exitDx=0;exitDy=0;entryX=0.75;entryY=1;entryDx=0;entryDy=0;edgeStyle=orthogonalEdgeStyle;fontSize=12;" parent="ptCPzutmmY7kmalORsYN-1" source="4zU_NHBIepmCl1VkYr-2-330" target="4zU_NHBIepmCl1VkYr-2-320" edge="1">
          <mxGeometry relative="1" as="geometry">
            <mxPoint x="1545.05" y="1399.93" as="sourcePoint" />
            <mxPoint x="1092" y="1365.93" as="targetPoint" />
          </mxGeometry>
        </mxCell>
        <mxCell id="4zU_NHBIepmCl1VkYr-2-332" value="1" style="resizable=0;html=1;whiteSpace=wrap;align=right;verticalAlign=bottom;fontSize=12;" parent="4zU_NHBIepmCl1VkYr-2-331" connectable="0" vertex="1">
          <mxGeometry x="1" relative="1" as="geometry">
            <mxPoint x="17" y="27" as="offset" />
          </mxGeometry>
        </mxCell>
        <mxCell id="4zU_NHBIepmCl1VkYr-2-335" value="LapTypes" style="whiteSpace=wrap;html=1;fontSize=12;" parent="ptCPzutmmY7kmalORsYN-1" vertex="1">
          <mxGeometry x="520.5" y="1278.01" width="80" height="30" as="geometry" />
        </mxCell>
        <mxCell id="4zU_NHBIepmCl1VkYr-2-336" value="&lt;b style=&quot;font-size: 12px;&quot;&gt;&lt;u style=&quot;font-size: 12px;&quot;&gt;LabType_id&lt;/u&gt;&lt;/b&gt;" style="ellipse;whiteSpace=wrap;html=1;fontSize=12;" parent="ptCPzutmmY7kmalORsYN-1" vertex="1">
          <mxGeometry x="420" y="1209.89" width="90" height="30" as="geometry" />
        </mxCell>
        <mxCell id="4zU_NHBIepmCl1VkYr-2-337" style="rounded=0;orthogonalLoop=1;jettySize=auto;html=1;exitX=0;exitY=0.5;exitDx=0;exitDy=0;entryX=0.5;entryY=1;entryDx=0;entryDy=0;endArrow=none;endFill=0;fontSize=12;" parent="ptCPzutmmY7kmalORsYN-1" source="4zU_NHBIepmCl1VkYr-2-335" target="4zU_NHBIepmCl1VkYr-2-336" edge="1">
          <mxGeometry relative="1" as="geometry">
            <mxPoint x="567.5" y="1257.26" as="sourcePoint" />
            <Array as="points" />
          </mxGeometry>
        </mxCell>
        <mxCell id="4zU_NHBIepmCl1VkYr-2-338" value="Type" style="ellipse;whiteSpace=wrap;html=1;fontSize=12;" parent="ptCPzutmmY7kmalORsYN-1" vertex="1">
          <mxGeometry x="400" y="1256.46" width="50" height="30" as="geometry" />
        </mxCell>
        <mxCell id="4zU_NHBIepmCl1VkYr-2-339" style="rounded=0;orthogonalLoop=1;jettySize=auto;html=1;entryX=1;entryY=1;entryDx=0;entryDy=0;endArrow=none;endFill=0;exitX=0;exitY=0.75;exitDx=0;exitDy=0;fontSize=12;" parent="ptCPzutmmY7kmalORsYN-1" source="4zU_NHBIepmCl1VkYr-2-335" target="4zU_NHBIepmCl1VkYr-2-338" edge="1">
          <mxGeometry relative="1" as="geometry">
            <mxPoint x="560" y="1276.46" as="sourcePoint" />
          </mxGeometry>
        </mxCell>
        <mxCell id="4zU_NHBIepmCl1VkYr-2-340" value="HAS" style="rhombus;whiteSpace=wrap;html=1;fontSize=12;" parent="ptCPzutmmY7kmalORsYN-1" vertex="1">
          <mxGeometry x="603" y="1318.01" width="75" height="80" as="geometry" />
        </mxCell>
        <mxCell id="4zU_NHBIepmCl1VkYr-2-343" value="" style="shape=link;html=1;rounded=0;entryX=0.25;entryY=1;entryDx=0;entryDy=0;edgeStyle=orthogonalEdgeStyle;exitX=1;exitY=0.5;exitDx=0;exitDy=0;fontSize=12;" parent="ptCPzutmmY7kmalORsYN-1" source="4zU_NHBIepmCl1VkYr-2-340" target="4zU_NHBIepmCl1VkYr-2-320" edge="1">
          <mxGeometry relative="1" as="geometry">
            <mxPoint x="534.5" y="1419" as="sourcePoint" />
            <mxPoint x="877.5" y="1510" as="targetPoint" />
          </mxGeometry>
        </mxCell>
        <mxCell id="4zU_NHBIepmCl1VkYr-2-344" value="1" style="resizable=0;html=1;whiteSpace=wrap;align=right;verticalAlign=bottom;fontSize=12;" parent="4zU_NHBIepmCl1VkYr-2-343" connectable="0" vertex="1">
          <mxGeometry x="1" relative="1" as="geometry">
            <mxPoint x="-8" y="23" as="offset" />
          </mxGeometry>
        </mxCell>
        <mxCell id="4zU_NHBIepmCl1VkYr-2-346" value="" style="shape=link;html=1;rounded=0;edgeStyle=orthogonalEdgeStyle;exitX=0;exitY=0.5;exitDx=0;exitDy=0;entryX=0.75;entryY=1;entryDx=0;entryDy=0;fontSize=12;" parent="ptCPzutmmY7kmalORsYN-1" source="4zU_NHBIepmCl1VkYr-2-340" target="4zU_NHBIepmCl1VkYr-2-335" edge="1">
          <mxGeometry relative="1" as="geometry">
            <mxPoint x="799.8800000000001" y="1353.01" as="sourcePoint" />
            <mxPoint x="865" y="1290.01" as="targetPoint" />
          </mxGeometry>
        </mxCell>
        <mxCell id="4zU_NHBIepmCl1VkYr-2-347" value="1" style="resizable=0;html=1;whiteSpace=wrap;align=right;verticalAlign=bottom;fontSize=12;" parent="4zU_NHBIepmCl1VkYr-2-346" connectable="0" vertex="1">
          <mxGeometry x="1" relative="1" as="geometry">
            <mxPoint x="-8" y="23" as="offset" />
          </mxGeometry>
        </mxCell>
        <mxCell id="4zU_NHBIepmCl1VkYr-2-348" value="" style="shape=link;html=1;rounded=0;entryX=0.75;entryY=1;entryDx=0;entryDy=0;edgeStyle=orthogonalEdgeStyle;exitX=0.5;exitY=0;exitDx=0;exitDy=0;fontSize=12;" parent="ptCPzutmmY7kmalORsYN-1" source="4zU_NHBIepmCl1VkYr-2-352" target="4zU_NHBIepmCl1VkYr-2-292" edge="1">
          <mxGeometry relative="1" as="geometry">
            <mxPoint x="266.17999999999984" y="1199.01" as="sourcePoint" />
            <mxPoint x="716.6799999999998" y="1072.01" as="targetPoint" />
          </mxGeometry>
        </mxCell>
        <mxCell id="4zU_NHBIepmCl1VkYr-2-349" value="1" style="resizable=0;html=1;whiteSpace=wrap;align=right;verticalAlign=bottom;fontSize=12;" parent="4zU_NHBIepmCl1VkYr-2-348" connectable="0" vertex="1">
          <mxGeometry x="1" relative="1" as="geometry">
            <mxPoint x="-6" y="25" as="offset" />
          </mxGeometry>
        </mxCell>
        <mxCell id="4zU_NHBIepmCl1VkYr-2-352" value="HAS" style="rhombus;whiteSpace=wrap;html=1;fontSize=12;" parent="ptCPzutmmY7kmalORsYN-1" vertex="1">
          <mxGeometry x="480.89" y="1090" width="75" height="80" as="geometry" />
        </mxCell>
        <mxCell id="4zU_NHBIepmCl1VkYr-2-355" value="" style="endArrow=none;html=1;rounded=0;entryX=0.25;entryY=0;entryDx=0;entryDy=0;edgeStyle=orthogonalEdgeStyle;exitX=0.5;exitY=1;exitDx=0;exitDy=0;fontSize=12;" parent="ptCPzutmmY7kmalORsYN-1" source="4zU_NHBIepmCl1VkYr-2-352" target="4zU_NHBIepmCl1VkYr-2-335" edge="1">
          <mxGeometry relative="1" as="geometry">
            <mxPoint x="570" y="1198.01" as="sourcePoint" />
            <mxPoint x="490" y="1093.28" as="targetPoint" />
          </mxGeometry>
        </mxCell>
        <mxCell id="4zU_NHBIepmCl1VkYr-2-356" value="1" style="resizable=0;html=1;whiteSpace=wrap;align=right;verticalAlign=bottom;fontSize=12;" parent="4zU_NHBIepmCl1VkYr-2-355" connectable="0" vertex="1">
          <mxGeometry x="1" relative="1" as="geometry">
            <mxPoint x="-9" y="-7" as="offset" />
          </mxGeometry>
        </mxCell>
        <mxCell id="4zU_NHBIepmCl1VkYr-2-357" value="Rooms" style="whiteSpace=wrap;html=1;fontSize=12;" parent="ptCPzutmmY7kmalORsYN-1" vertex="1">
          <mxGeometry x="150.89" y="786.06" width="60" height="30" as="geometry" />
        </mxCell>
        <mxCell id="4zU_NHBIepmCl1VkYr-2-358" value="Room_id" style="ellipse;whiteSpace=wrap;html=1;align=center;fontStyle=5;fontSize=12;" parent="ptCPzutmmY7kmalORsYN-1" vertex="1">
          <mxGeometry x="90.89" y="702" width="70" height="30" as="geometry" />
        </mxCell>
        <mxCell id="4zU_NHBIepmCl1VkYr-2-359" style="rounded=0;orthogonalLoop=1;jettySize=auto;html=1;exitX=0.25;exitY=0;exitDx=0;exitDy=0;entryX=0.5;entryY=1;entryDx=0;entryDy=0;endArrow=none;endFill=0;fontSize=12;" parent="ptCPzutmmY7kmalORsYN-1" source="4zU_NHBIepmCl1VkYr-2-357" target="4zU_NHBIepmCl1VkYr-2-358" edge="1">
          <mxGeometry relative="1" as="geometry">
            <mxPoint x="196.89" y="771.81" as="sourcePoint" />
            <mxPoint x="230.89" y="726.81" as="targetPoint" />
            <Array as="points" />
          </mxGeometry>
        </mxCell>
        <mxCell id="4zU_NHBIepmCl1VkYr-2-360" value="Capacity" style="ellipse;whiteSpace=wrap;html=1;fontSize=12;" parent="ptCPzutmmY7kmalORsYN-1" vertex="1">
          <mxGeometry x="175.89" y="702" width="70" height="30" as="geometry" />
        </mxCell>
        <mxCell id="4zU_NHBIepmCl1VkYr-2-361" style="rounded=0;orthogonalLoop=1;jettySize=auto;html=1;exitX=0.75;exitY=0;exitDx=0;exitDy=0;entryX=0.5;entryY=1;entryDx=0;entryDy=0;endArrow=none;endFill=0;fontSize=12;" parent="ptCPzutmmY7kmalORsYN-1" source="4zU_NHBIepmCl1VkYr-2-357" target="4zU_NHBIepmCl1VkYr-2-360" edge="1">
          <mxGeometry relative="1" as="geometry">
            <mxPoint x="250.89" y="776.56" as="sourcePoint" />
            <Array as="points" />
          </mxGeometry>
        </mxCell>
        <mxCell id="4zU_NHBIepmCl1VkYr-2-362" value="building_no" style="ellipse;whiteSpace=wrap;html=1;fontStyle=0;shadow=0;fontSize=12;" parent="ptCPzutmmY7kmalORsYN-1" vertex="1">
          <mxGeometry x="25.89" y="747" width="80" height="30" as="geometry" />
        </mxCell>
        <mxCell id="4zU_NHBIepmCl1VkYr-2-363" style="rounded=0;orthogonalLoop=1;jettySize=auto;html=1;exitX=0;exitY=0.5;exitDx=0;exitDy=0;entryX=1;entryY=1;entryDx=0;entryDy=0;endArrow=none;endFill=0;fontSize=12;" parent="ptCPzutmmY7kmalORsYN-1" source="4zU_NHBIepmCl1VkYr-2-357" target="4zU_NHBIepmCl1VkYr-2-362" edge="1">
          <mxGeometry relative="1" as="geometry">
            <mxPoint x="180.89" y="901.31" as="sourcePoint" />
          </mxGeometry>
        </mxCell>
        <mxCell id="4zU_NHBIepmCl1VkYr-2-364" value="room_name" style="ellipse;whiteSpace=wrap;html=1;fontSize=12;" parent="ptCPzutmmY7kmalORsYN-1" vertex="1">
          <mxGeometry x="245.89" y="747" width="90" height="30" as="geometry" />
        </mxCell>
        <mxCell id="4zU_NHBIepmCl1VkYr-2-365" style="rounded=0;orthogonalLoop=1;jettySize=auto;html=1;exitX=1;exitY=0.5;exitDx=0;exitDy=0;entryX=0;entryY=1;entryDx=0;entryDy=0;endArrow=none;endFill=0;fontSize=12;" parent="ptCPzutmmY7kmalORsYN-1" source="4zU_NHBIepmCl1VkYr-2-357" target="4zU_NHBIepmCl1VkYr-2-364" edge="1">
          <mxGeometry relative="1" as="geometry">
            <mxPoint x="273.39" y="810.81" as="sourcePoint" />
          </mxGeometry>
        </mxCell>
        <mxCell id="4zU_NHBIepmCl1VkYr-2-366" value="IN" style="rhombus;whiteSpace=wrap;html=1;fontSize=12;" parent="ptCPzutmmY7kmalORsYN-1" vertex="1">
          <mxGeometry x="180.89" y="859.9300000000001" width="75" height="80" as="geometry" />
        </mxCell>
        <mxCell id="4zU_NHBIepmCl1VkYr-2-367" value="" style="shape=link;html=1;rounded=0;exitX=1;exitY=0.5;exitDx=0;exitDy=0;edgeStyle=orthogonalEdgeStyle;entryX=0;entryY=0.5;entryDx=0;entryDy=0;fontSize=12;" parent="ptCPzutmmY7kmalORsYN-1" source="4zU_NHBIepmCl1VkYr-2-366" target="4zU_NHBIepmCl1VkYr-2-292" edge="1">
          <mxGeometry relative="1" as="geometry">
            <mxPoint x="440" y="850.13" as="sourcePoint" />
            <mxPoint x="275" y="1009.13" as="targetPoint" />
          </mxGeometry>
        </mxCell>
        <mxCell id="4zU_NHBIepmCl1VkYr-2-368" value="1" style="resizable=0;html=1;whiteSpace=wrap;align=right;verticalAlign=bottom;fontSize=12;" parent="4zU_NHBIepmCl1VkYr-2-367" connectable="0" vertex="1">
          <mxGeometry x="1" relative="1" as="geometry">
            <mxPoint x="-14" y="-5" as="offset" />
          </mxGeometry>
        </mxCell>
        <mxCell id="4zU_NHBIepmCl1VkYr-2-369" value="" style="endArrow=none;html=1;rounded=0;entryX=0.5;entryY=1;entryDx=0;entryDy=0;edgeStyle=orthogonalEdgeStyle;exitX=0.5;exitY=0;exitDx=0;exitDy=0;fontSize=12;" parent="ptCPzutmmY7kmalORsYN-1" source="4zU_NHBIepmCl1VkYr-2-366" target="4zU_NHBIepmCl1VkYr-2-357" edge="1">
          <mxGeometry relative="1" as="geometry">
            <mxPoint x="165.89" y="867.56" as="sourcePoint" />
            <mxPoint x="164.89" y="982.56" as="targetPoint" />
          </mxGeometry>
        </mxCell>
        <mxCell id="4zU_NHBIepmCl1VkYr-2-370" value="1" style="resizable=0;html=1;whiteSpace=wrap;align=right;verticalAlign=bottom;fontSize=12;" parent="4zU_NHBIepmCl1VkYr-2-369" connectable="0" vertex="1">
          <mxGeometry x="1" relative="1" as="geometry">
            <mxPoint x="-5" y="22" as="offset" />
          </mxGeometry>
        </mxCell>
        <mxCell id="4zU_NHBIepmCl1VkYr-2-404" value="Grade" style="ellipse;whiteSpace=wrap;html=1;fontSize=12;" parent="ptCPzutmmY7kmalORsYN-1" vertex="1">
          <mxGeometry x="2142.5" y="600" width="60" height="30" as="geometry" />
        </mxCell>
        <mxCell id="4zU_NHBIepmCl1VkYr-2-406" value="STD_Report_id" style="ellipse;whiteSpace=wrap;html=1;fontStyle=5;fontSize=12;" parent="ptCPzutmmY7kmalORsYN-1" vertex="1">
          <mxGeometry x="2342.5" y="600" width="100" height="30" as="geometry" />
        </mxCell>
        <mxCell id="4zU_NHBIepmCl1VkYr-2-407" style="rounded=0;orthogonalLoop=1;jettySize=auto;html=1;exitX=1;exitY=0.5;exitDx=0;exitDy=0;entryX=0;entryY=1;entryDx=0;entryDy=0;endArrow=none;endFill=0;exitPerimeter=0;fontSize=12;" parent="ptCPzutmmY7kmalORsYN-1" source="4zU_NHBIepmCl1VkYr-2-409" target="4zU_NHBIepmCl1VkYr-2-406" edge="1">
          <mxGeometry relative="1" as="geometry" />
        </mxCell>
        <mxCell id="4zU_NHBIepmCl1VkYr-2-409" value="Std_Reports" style="whiteSpace=wrap;html=1;points=[[0,0,0,0,0],[0,0.25,0,0,0],[0,0.5,0,0,0],[0,0.75,0,0,0],[0,1,0,0,0],[0.25,0,0,0,0],[0.25,1,0,0,0],[0.5,0,0,0,0],[0.5,1,0,0,0],[0.62,0,0,0,0],[0.75,0,0,0,0],[0.75,1,0,0,0],[1,0,0,0,0],[1,0.25,0,0,0],[1,0.5,0,0,0],[1,0.75,0,0,0],[1,1,0,0,0]];fontSize=12;" parent="ptCPzutmmY7kmalORsYN-1" vertex="1">
          <mxGeometry x="2225" y="645" width="90" height="30" as="geometry" />
        </mxCell>
        <mxCell id="4zU_NHBIepmCl1VkYr-2-161" value="" style="endArrow=none;html=1;rounded=0;exitX=0.5;exitY=1;exitDx=0;exitDy=0;edgeStyle=orthogonalEdgeStyle;entryX=0.75;entryY=0;entryDx=0;entryDy=0;fontSize=12;" parent="ptCPzutmmY7kmalORsYN-1" source="4zU_NHBIepmCl1VkYr-2-163" target="4zU_NHBIepmCl1VkYr-2-305" edge="1">
          <mxGeometry relative="1" as="geometry">
            <mxPoint x="1524" y="800" as="sourcePoint" />
            <mxPoint x="1853" y="1120" as="targetPoint" />
            <Array as="points">
              <mxPoint x="1560" y="1010" />
              <mxPoint x="1881" y="1010" />
            </Array>
          </mxGeometry>
        </mxCell>
        <mxCell id="4zU_NHBIepmCl1VkYr-2-162" value="1" style="resizable=0;html=1;whiteSpace=wrap;align=right;verticalAlign=bottom;fontSize=12;" parent="4zU_NHBIepmCl1VkYr-2-161" connectable="0" vertex="1">
          <mxGeometry x="1" relative="1" as="geometry">
            <mxPoint x="14" y="-10" as="offset" />
          </mxGeometry>
        </mxCell>
        <mxCell id="4zU_NHBIepmCl1VkYr-2-410" style="rounded=0;orthogonalLoop=1;jettySize=auto;html=1;exitX=0;exitY=0.5;exitDx=0;exitDy=0;entryX=1;entryY=1;entryDx=0;entryDy=0;endArrow=none;endFill=0;fontSize=12;" parent="ptCPzutmmY7kmalORsYN-1" source="4zU_NHBIepmCl1VkYr-2-409" target="4zU_NHBIepmCl1VkYr-2-404" edge="1">
          <mxGeometry relative="1" as="geometry" />
        </mxCell>
        <mxCell id="4zU_NHBIepmCl1VkYr-2-411" value="Author_id" style="ellipse;whiteSpace=wrap;html=1;fontSize=12;" parent="ptCPzutmmY7kmalORsYN-1" vertex="1">
          <mxGeometry x="2190" y="560" width="70" height="30" as="geometry" />
        </mxCell>
        <mxCell id="4zU_NHBIepmCl1VkYr-2-412" style="rounded=0;orthogonalLoop=1;jettySize=auto;html=1;exitX=0.25;exitY=0;exitDx=0;exitDy=0;entryX=0.5;entryY=1;entryDx=0;entryDy=0;endArrow=none;endFill=0;fontSize=12;" parent="ptCPzutmmY7kmalORsYN-1" source="4zU_NHBIepmCl1VkYr-2-409" target="4zU_NHBIepmCl1VkYr-2-411" edge="1">
          <mxGeometry relative="1" as="geometry">
            <mxPoint x="2222" y="620" as="sourcePoint" />
          </mxGeometry>
        </mxCell>
        <mxCell id="4zU_NHBIepmCl1VkYr-2-413" style="rounded=0;orthogonalLoop=1;jettySize=auto;html=1;entryX=0.75;entryY=0;entryDx=0;entryDy=0;endArrow=none;endFill=0;entryPerimeter=0;exitX=0.24;exitY=0.9;exitDx=0;exitDy=0;exitPerimeter=0;fontSize=12;" parent="ptCPzutmmY7kmalORsYN-1" source="4zU_NHBIepmCl1VkYr-2-414" target="4zU_NHBIepmCl1VkYr-2-409" edge="1">
          <mxGeometry relative="1" as="geometry">
            <mxPoint x="2310" y="620" as="sourcePoint" />
            <mxPoint x="2270" y="675" as="targetPoint" />
          </mxGeometry>
        </mxCell>
        <mxCell id="4zU_NHBIepmCl1VkYr-2-414" value="Std_report_desc" style="ellipse;whiteSpace=wrap;html=1;points=[[0,0,0,0,0],[0,0.5,0,0,0],[0.24,0.9,0,0,0],[0.5,0,0,0,0],[0.5,1,0,0,0],[1,0,0,0,0],[1,0.5,0,0,0],[1,1,0,0,0]];fontSize=12;" parent="ptCPzutmmY7kmalORsYN-1" vertex="1">
          <mxGeometry x="2307.5" y="560" width="110" height="30" as="geometry" />
        </mxCell>
        <mxCell id="4zU_NHBIepmCl1VkYr-2-417" value="FOR" style="rhombus;whiteSpace=wrap;html=1;fontSize=12;" parent="ptCPzutmmY7kmalORsYN-1" vertex="1">
          <mxGeometry x="2232.5" y="750" width="75" height="80" as="geometry" />
        </mxCell>
        <mxCell id="4zU_NHBIepmCl1VkYr-2-418" value="FOR" style="rhombus;whiteSpace=wrap;html=1;fontSize=12;" parent="ptCPzutmmY7kmalORsYN-1" vertex="1">
          <mxGeometry x="2135" y="750" width="75" height="80" as="geometry" />
        </mxCell>
        <mxCell id="4zU_NHBIepmCl1VkYr-2-421" value="BY" style="rhombus;whiteSpace=wrap;html=1;fontSize=12;" parent="ptCPzutmmY7kmalORsYN-1" vertex="1">
          <mxGeometry x="2332.5" y="750" width="75" height="80" as="geometry" />
        </mxCell>
        <mxCell id="4zU_NHBIepmCl1VkYr-2-424" value="" style="shape=link;html=1;rounded=0;entryX=0.5;entryY=1;entryDx=0;entryDy=0;exitX=0.5;exitY=0;exitDx=0;exitDy=0;edgeStyle=orthogonalEdgeStyle;fontSize=12;" parent="ptCPzutmmY7kmalORsYN-1" source="4zU_NHBIepmCl1VkYr-2-417" target="4zU_NHBIepmCl1VkYr-2-409" edge="1">
          <mxGeometry relative="1" as="geometry">
            <mxPoint x="2375" y="754.53" as="sourcePoint" />
            <mxPoint x="2275" y="689.53" as="targetPoint" />
          </mxGeometry>
        </mxCell>
        <mxCell id="4zU_NHBIepmCl1VkYr-2-425" value="M" style="resizable=0;html=1;whiteSpace=wrap;align=right;verticalAlign=bottom;fontSize=12;" parent="4zU_NHBIepmCl1VkYr-2-424" connectable="0" vertex="1">
          <mxGeometry x="1" relative="1" as="geometry">
            <mxPoint x="-4" y="20" as="offset" />
          </mxGeometry>
        </mxCell>
        <mxCell id="4zU_NHBIepmCl1VkYr-2-426" value="" style="shape=link;html=1;rounded=0;entryX=0.25;entryY=1;entryDx=0;entryDy=0;exitX=0.5;exitY=0;exitDx=0;exitDy=0;edgeStyle=orthogonalEdgeStyle;fontSize=12;" parent="ptCPzutmmY7kmalORsYN-1" source="4zU_NHBIepmCl1VkYr-2-418" target="4zU_NHBIepmCl1VkYr-2-409" edge="1">
          <mxGeometry relative="1" as="geometry">
            <mxPoint x="2223" y="742.9300000000001" as="sourcePoint" />
            <mxPoint x="2215" y="677.9300000000001" as="targetPoint" />
          </mxGeometry>
        </mxCell>
        <mxCell id="4zU_NHBIepmCl1VkYr-2-427" value="M" style="resizable=0;html=1;whiteSpace=wrap;align=right;verticalAlign=bottom;fontSize=12;" parent="4zU_NHBIepmCl1VkYr-2-426" connectable="0" vertex="1">
          <mxGeometry x="1" relative="1" as="geometry">
            <mxPoint x="-4" y="20" as="offset" />
          </mxGeometry>
        </mxCell>
        <mxCell id="4zU_NHBIepmCl1VkYr-2-428" value="" style="shape=link;html=1;rounded=0;entryX=1;entryY=0.5;entryDx=0;entryDy=0;edgeStyle=orthogonalEdgeStyle;exitX=0.5;exitY=1;exitDx=0;exitDy=0;fontSize=12;" parent="ptCPzutmmY7kmalORsYN-1" source="4zU_NHBIepmCl1VkYr-2-122" target="4zU_NHBIepmCl1VkYr-2-39" edge="1">
          <mxGeometry relative="1" as="geometry">
            <mxPoint x="1970.63" y="1460" as="sourcePoint" />
            <mxPoint x="1744.63" y="1552" as="targetPoint" />
          </mxGeometry>
        </mxCell>
        <mxCell id="4zU_NHBIepmCl1VkYr-2-429" value="1" style="resizable=0;html=1;whiteSpace=wrap;align=right;verticalAlign=bottom;fontSize=12;" parent="4zU_NHBIepmCl1VkYr-2-428" connectable="0" vertex="1">
          <mxGeometry x="1" relative="1" as="geometry">
            <mxPoint x="21" y="-10" as="offset" />
          </mxGeometry>
        </mxCell>
        <mxCell id="4zU_NHBIepmCl1VkYr-2-430" value="" style="endArrow=none;html=1;rounded=0;exitX=0.5;exitY=1;exitDx=0;exitDy=0;edgeStyle=orthogonalEdgeStyle;entryX=1;entryY=0.75;entryDx=0;entryDy=0;fontSize=12;" parent="ptCPzutmmY7kmalORsYN-1" source="4zU_NHBIepmCl1VkYr-2-421" target="4zU_NHBIepmCl1VkYr-2-305" edge="1">
          <mxGeometry relative="1" as="geometry">
            <mxPoint x="2210" y="870" as="sourcePoint" />
            <mxPoint x="1950" y="990" as="targetPoint" />
            <Array as="points">
              <mxPoint x="2370" y="930" />
              <mxPoint x="1990" y="930" />
              <mxPoint x="1990" y="1186" />
            </Array>
          </mxGeometry>
        </mxCell>
        <mxCell id="4zU_NHBIepmCl1VkYr-2-431" value="1" style="resizable=0;html=1;whiteSpace=wrap;align=right;verticalAlign=bottom;fontSize=12;" parent="4zU_NHBIepmCl1VkYr-2-430" connectable="0" vertex="1">
          <mxGeometry x="1" relative="1" as="geometry">
            <mxPoint x="15" y="19" as="offset" />
          </mxGeometry>
        </mxCell>
        <mxCell id="4zU_NHBIepmCl1VkYr-2-434" value="" style="endArrow=none;html=1;rounded=0;exitX=0.5;exitY=1;exitDx=0;exitDy=0;entryX=0.81;entryY=0;entryDx=0;entryDy=0;edgeStyle=orthogonalEdgeStyle;entryPerimeter=0;fontSize=12;" parent="ptCPzutmmY7kmalORsYN-1" source="4zU_NHBIepmCl1VkYr-2-418" target="4zU_NHBIepmCl1VkYr-2-5" edge="1">
          <mxGeometry relative="1" as="geometry">
            <mxPoint x="2000" y="760" as="sourcePoint" />
            <mxPoint x="1767" y="718" as="targetPoint" />
            <Array as="points">
              <mxPoint x="2172" y="870" />
              <mxPoint x="1280" y="870" />
              <mxPoint x="1280" y="1172" />
            </Array>
          </mxGeometry>
        </mxCell>
        <mxCell id="4zU_NHBIepmCl1VkYr-2-435" value="1" style="resizable=0;html=1;whiteSpace=wrap;align=right;verticalAlign=bottom;fontSize=12;" parent="4zU_NHBIepmCl1VkYr-2-434" connectable="0" vertex="1">
          <mxGeometry x="1" relative="1" as="geometry">
            <mxPoint x="-1" y="-6" as="offset" />
          </mxGeometry>
        </mxCell>
        <mxCell id="4zU_NHBIepmCl1VkYr-2-123" value="" style="shape=link;html=1;rounded=0;entryX=0.75;entryY=1;entryDx=0;entryDy=0;exitX=0.5;exitY=0;exitDx=0;exitDy=0;edgeStyle=orthogonalEdgeStyle;fontSize=12;" parent="ptCPzutmmY7kmalORsYN-1" source="4zU_NHBIepmCl1VkYr-2-421" target="4zU_NHBIepmCl1VkYr-2-409" edge="1">
          <mxGeometry relative="1" as="geometry">
            <mxPoint x="2465" y="725" as="sourcePoint" />
            <mxPoint x="2365" y="660" as="targetPoint" />
          </mxGeometry>
        </mxCell>
        <mxCell id="4zU_NHBIepmCl1VkYr-2-124" value="M" style="resizable=0;html=1;whiteSpace=wrap;align=right;verticalAlign=bottom;fontSize=12;" parent="4zU_NHBIepmCl1VkYr-2-123" connectable="0" vertex="1">
          <mxGeometry x="1" relative="1" as="geometry">
            <mxPoint x="-3" y="20" as="offset" />
          </mxGeometry>
        </mxCell>
        <mxCell id="4zU_NHBIepmCl1VkYr-2-436" value="" style="endArrow=none;html=1;rounded=0;exitX=0.5;exitY=1;exitDx=0;exitDy=0;entryX=0.64;entryY=0;entryDx=0;entryDy=0;edgeStyle=orthogonalEdgeStyle;entryPerimeter=0;fontSize=12;" parent="ptCPzutmmY7kmalORsYN-1" source="4zU_NHBIepmCl1VkYr-2-417" target="4zU_NHBIepmCl1VkYr-2-1" edge="1">
          <mxGeometry relative="1" as="geometry">
            <mxPoint x="2010" y="830" as="sourcePoint" />
            <mxPoint x="1777" y="788" as="targetPoint" />
            <Array as="points">
              <mxPoint x="2270" y="900" />
              <mxPoint x="1730" y="900" />
              <mxPoint x="1730" y="1040" />
              <mxPoint x="1534" y="1040" />
              <mxPoint x="1534" y="1177" />
            </Array>
          </mxGeometry>
        </mxCell>
        <mxCell id="4zU_NHBIepmCl1VkYr-2-437" value="1" style="resizable=0;html=1;whiteSpace=wrap;align=right;verticalAlign=bottom;fontSize=12;" parent="4zU_NHBIepmCl1VkYr-2-436" connectable="0" vertex="1">
          <mxGeometry x="1" relative="1" as="geometry">
            <mxPoint x="-8" y="-9" as="offset" />
          </mxGeometry>
        </mxCell>
        <mxCell id="4zU_NHBIepmCl1VkYr-2-438" value="in" style="rhombus;whiteSpace=wrap;html=1;fontSize=12;" parent="ptCPzutmmY7kmalORsYN-1" vertex="1">
          <mxGeometry x="2240" y="335" width="75" height="80" as="geometry" />
        </mxCell>
        <mxCell id="4zU_NHBIepmCl1VkYr-2-441" value="" style="shape=link;html=1;rounded=0;entryX=0.62;entryY=0;entryDx=0;entryDy=0;exitX=0.5;exitY=1;exitDx=0;exitDy=0;edgeStyle=orthogonalEdgeStyle;entryPerimeter=0;fontSize=12;width=1.904761904761905;" parent="ptCPzutmmY7kmalORsYN-1" source="4zU_NHBIepmCl1VkYr-2-438" target="4zU_NHBIepmCl1VkYr-2-409" edge="1">
          <mxGeometry relative="1" as="geometry">
            <mxPoint x="2224.95" y="462.25" as="sourcePoint" />
            <mxPoint x="2147.95" y="387.25" as="targetPoint" />
            <Array as="points">
              <mxPoint x="2280" y="420" />
              <mxPoint x="2280" y="460" />
            </Array>
          </mxGeometry>
        </mxCell>
        <mxCell id="4zU_NHBIepmCl1VkYr-2-442" value="M" style="resizable=0;html=1;whiteSpace=wrap;align=right;verticalAlign=bottom;fontSize=12;" parent="4zU_NHBIepmCl1VkYr-2-441" connectable="0" vertex="1">
          <mxGeometry x="1" relative="1" as="geometry">
            <mxPoint x="-6" y="-20" as="offset" />
          </mxGeometry>
        </mxCell>
        <mxCell id="4zU_NHBIepmCl1VkYr-2-443" value="" style="endArrow=none;html=1;rounded=0;exitX=0.5;exitY=0;exitDx=0;exitDy=0;edgeStyle=orthogonalEdgeStyle;entryX=0.62;entryY=0;entryDx=0;entryDy=0;entryPerimeter=0;fontSize=12;" parent="ptCPzutmmY7kmalORsYN-1" source="4zU_NHBIepmCl1VkYr-2-438" edge="1">
          <mxGeometry relative="1" as="geometry">
            <mxPoint x="2285.3" y="335" as="sourcePoint" />
            <mxPoint x="1172.4999999999998" y="175" as="targetPoint" />
            <Array as="points">
              <mxPoint x="2278" />
              <mxPoint x="1188" />
              <mxPoint x="1188" y="150" />
              <mxPoint x="1173" y="150" />
            </Array>
          </mxGeometry>
        </mxCell>
        <mxCell id="4zU_NHBIepmCl1VkYr-2-444" value="1" style="resizable=0;html=1;whiteSpace=wrap;align=right;verticalAlign=bottom;fontSize=12;" parent="4zU_NHBIepmCl1VkYr-2-443" connectable="0" vertex="1">
          <mxGeometry x="1" relative="1" as="geometry">
            <mxPoint x="12" y="-26" as="offset" />
          </mxGeometry>
        </mxCell>
        <mxCell id="4zU_NHBIepmCl1VkYr-2-447" value="&lt;b style=&quot;font-size: 12px;&quot;&gt;&lt;u style=&quot;font-size: 12px;&quot;&gt;LAB_Report_id&lt;/u&gt;&lt;/b&gt;" style="ellipse;whiteSpace=wrap;html=1;fontSize=12;" parent="ptCPzutmmY7kmalORsYN-1" vertex="1">
          <mxGeometry x="456.62" y="1429" width="110" height="30" as="geometry" />
        </mxCell>
        <mxCell id="4zU_NHBIepmCl1VkYr-2-448" value="lab_report_date" style="ellipse;whiteSpace=wrap;html=1;dashed=1;fontSize=12;" parent="ptCPzutmmY7kmalORsYN-1" vertex="1">
          <mxGeometry x="707.12" y="1430.87" width="90" height="30" as="geometry" />
        </mxCell>
        <mxCell id="4zU_NHBIepmCl1VkYr-2-449" style="rounded=0;orthogonalLoop=1;jettySize=auto;html=1;exitX=0.5;exitY=0;exitDx=0;exitDy=0;entryX=0.5;entryY=1;entryDx=0;entryDy=0;endArrow=none;endFill=0;fontSize=12;" parent="ptCPzutmmY7kmalORsYN-1" source="4zU_NHBIepmCl1VkYr-2-456" target="4zU_NHBIepmCl1VkYr-2-448" edge="1">
          <mxGeometry relative="1" as="geometry" />
        </mxCell>
        <mxCell id="4zU_NHBIepmCl1VkYr-2-450" style="rounded=0;orthogonalLoop=1;jettySize=auto;html=1;exitX=0.75;exitY=0;exitDx=0;exitDy=0;entryX=0;entryY=1;entryDx=0;entryDy=0;endArrow=none;endFill=0;fontSize=12;" parent="ptCPzutmmY7kmalORsYN-1" source="4zU_NHBIepmCl1VkYr-2-452" target="4zU_NHBIepmCl1VkYr-2-447" edge="1">
          <mxGeometry relative="1" as="geometry" />
        </mxCell>
        <mxCell id="4zU_NHBIepmCl1VkYr-2-452" value="Lab_Reports" style="whiteSpace=wrap;html=1;fontSize=12;" parent="ptCPzutmmY7kmalORsYN-1" vertex="1">
          <mxGeometry x="391.62" y="1494" width="90" height="30" as="geometry" />
        </mxCell>
        <mxCell id="4zU_NHBIepmCl1VkYr-2-454" value="lab_report_desc" style="ellipse;whiteSpace=wrap;html=1;fontSize=12;" parent="ptCPzutmmY7kmalORsYN-1" vertex="1">
          <mxGeometry x="376.62" y="1559" width="110" height="30" as="geometry" />
        </mxCell>
        <mxCell id="4zU_NHBIepmCl1VkYr-2-455" style="rounded=0;orthogonalLoop=1;jettySize=auto;html=1;exitX=0.5;exitY=0;exitDx=0;exitDy=0;entryX=0.5;entryY=1;entryDx=0;entryDy=0;endArrow=none;endFill=0;fontSize=12;" parent="ptCPzutmmY7kmalORsYN-1" source="4zU_NHBIepmCl1VkYr-2-454" target="4zU_NHBIepmCl1VkYr-2-452" edge="1">
          <mxGeometry relative="1" as="geometry">
            <mxPoint x="411.62" y="1574" as="sourcePoint" />
            <mxPoint x="393.62" y="1534" as="targetPoint" />
          </mxGeometry>
        </mxCell>
        <mxCell id="4zU_NHBIepmCl1VkYr-2-456" value="MAKE" style="rhombus;whiteSpace=wrap;html=1;fontSize=12;" parent="ptCPzutmmY7kmalORsYN-1" vertex="1">
          <mxGeometry x="714.62" y="1510.87" width="75" height="80" as="geometry" />
        </mxCell>
        <mxCell id="4zU_NHBIepmCl1VkYr-2-457" value="" style="shape=link;html=1;rounded=0;edgeStyle=orthogonalEdgeStyle;exitX=0;exitY=0.5;exitDx=0;exitDy=0;entryX=0.75;entryY=1;entryDx=0;entryDy=0;fontSize=12;" parent="ptCPzutmmY7kmalORsYN-1" source="4zU_NHBIepmCl1VkYr-2-456" target="4zU_NHBIepmCl1VkYr-2-452" edge="1">
          <mxGeometry relative="1" as="geometry">
            <mxPoint x="656.0300000000003" y="1577.87" as="sourcePoint" />
            <mxPoint x="517.1500000000002" y="1544.87" as="targetPoint" />
            <Array as="points">
              <mxPoint x="705.62" y="1550.87" />
              <mxPoint x="459.62" y="1550.87" />
            </Array>
          </mxGeometry>
        </mxCell>
        <mxCell id="4zU_NHBIepmCl1VkYr-2-458" value="M" style="resizable=0;html=1;whiteSpace=wrap;align=right;verticalAlign=bottom;fontSize=12;" parent="4zU_NHBIepmCl1VkYr-2-457" connectable="0" vertex="1">
          <mxGeometry x="1" relative="1" as="geometry">
            <mxPoint x="-8" y="23" as="offset" />
          </mxGeometry>
        </mxCell>
        <mxCell id="4zU_NHBIepmCl1VkYr-2-459" value="" style="endArrow=none;html=1;rounded=0;entryX=0.5;entryY=1;entryDx=0;entryDy=0;edgeStyle=orthogonalEdgeStyle;exitX=1;exitY=0.5;exitDx=0;exitDy=0;fontSize=12;" parent="ptCPzutmmY7kmalORsYN-1" source="4zU_NHBIepmCl1VkYr-2-456" target="4zU_NHBIepmCl1VkYr-2-320" edge="1">
          <mxGeometry relative="1" as="geometry">
            <mxPoint x="670" y="1540" as="sourcePoint" />
            <mxPoint x="669" y="1655" as="targetPoint" />
          </mxGeometry>
        </mxCell>
        <mxCell id="4zU_NHBIepmCl1VkYr-2-460" value="1" style="resizable=0;html=1;whiteSpace=wrap;align=right;verticalAlign=bottom;fontSize=12;" parent="4zU_NHBIepmCl1VkYr-2-459" connectable="0" vertex="1">
          <mxGeometry x="1" relative="1" as="geometry">
            <mxPoint x="-1" y="28" as="offset" />
          </mxGeometry>
        </mxCell>
        <mxCell id="4zU_NHBIepmCl1VkYr-2-461" value="made for" style="rhombus;whiteSpace=wrap;html=1;fontSize=12;" parent="ptCPzutmmY7kmalORsYN-1" vertex="1">
          <mxGeometry x="235" y="1266.5500000000002" width="75" height="80" as="geometry" />
        </mxCell>
        <mxCell id="4zU_NHBIepmCl1VkYr-2-462" value="" style="shape=link;html=1;rounded=0;edgeStyle=orthogonalEdgeStyle;exitX=0.5;exitY=1;exitDx=0;exitDy=0;entryX=0.5;entryY=0;entryDx=0;entryDy=0;fontSize=12;" parent="ptCPzutmmY7kmalORsYN-1" source="4zU_NHBIepmCl1VkYr-2-461" target="4zU_NHBIepmCl1VkYr-2-452" edge="1">
          <mxGeometry relative="1" as="geometry">
            <mxPoint x="260" y="1400" as="sourcePoint" />
            <mxPoint x="5" y="1373" as="targetPoint" />
          </mxGeometry>
        </mxCell>
        <mxCell id="4zU_NHBIepmCl1VkYr-2-463" value="M" style="resizable=0;html=1;whiteSpace=wrap;align=right;verticalAlign=bottom;fontSize=12;" parent="4zU_NHBIepmCl1VkYr-2-462" connectable="0" vertex="1">
          <mxGeometry x="1" relative="1" as="geometry">
            <mxPoint x="-4" y="-1" as="offset" />
          </mxGeometry>
        </mxCell>
        <mxCell id="4zU_NHBIepmCl1VkYr-2-464" value="" style="endArrow=none;html=1;rounded=0;entryX=0.25;entryY=1;entryDx=0;entryDy=0;exitX=0.5;exitY=0;exitDx=0;exitDy=0;fontSize=12;edgeStyle=orthogonalEdgeStyle;" parent="ptCPzutmmY7kmalORsYN-1" source="4zU_NHBIepmCl1VkYr-2-461" target="4zU_NHBIepmCl1VkYr-2-292" edge="1">
          <mxGeometry relative="1" as="geometry">
            <mxPoint x="-40.25" y="1198" as="sourcePoint" />
            <mxPoint x="349.75" y="860" as="targetPoint" />
          </mxGeometry>
        </mxCell>
        <mxCell id="4zU_NHBIepmCl1VkYr-2-465" value="1" style="resizable=0;html=1;whiteSpace=wrap;align=right;verticalAlign=bottom;fontSize=12;" parent="4zU_NHBIepmCl1VkYr-2-464" connectable="0" vertex="1">
          <mxGeometry x="1" relative="1" as="geometry">
            <mxPoint x="-4" y="26" as="offset" />
          </mxGeometry>
        </mxCell>
        <mxCell id="bXW5TPcVM4CxVnHZV8xK-1" value="std_report_date" style="ellipse;whiteSpace=wrap;html=1;dashed=1;fontSize=12;" parent="ptCPzutmmY7kmalORsYN-1" vertex="1">
          <mxGeometry x="2452.5" y="776.86" width="90" height="30" as="geometry" />
        </mxCell>
        <mxCell id="bXW5TPcVM4CxVnHZV8xK-2" style="rounded=0;orthogonalLoop=1;jettySize=auto;html=1;exitX=0;exitY=0.5;exitDx=0;exitDy=0;entryX=1;entryY=0.5;entryDx=0;entryDy=0;endArrow=none;endFill=0;fontSize=12;" parent="ptCPzutmmY7kmalORsYN-1" source="bXW5TPcVM4CxVnHZV8xK-1" target="4zU_NHBIepmCl1VkYr-2-421" edge="1">
          <mxGeometry relative="1" as="geometry">
            <mxPoint x="2512.5" y="974.86" as="sourcePoint" />
            <mxPoint x="2430" y="832.9300000000001" as="targetPoint" />
          </mxGeometry>
        </mxCell>
        <mxCell id="bXW5TPcVM4CxVnHZV8xK-3" value="std_report_date" style="ellipse;whiteSpace=wrap;html=1;dashed=1;fontSize=12;" parent="ptCPzutmmY7kmalORsYN-1" vertex="1">
          <mxGeometry x="2442.5" y="775" width="110" height="30" as="geometry" />
        </mxCell>
        <mxCell id="-RuJJdG5ecWhLBhyT_9J-1" style="edgeStyle=orthogonalEdgeStyle;rounded=0;orthogonalLoop=1;jettySize=auto;html=1;exitX=0.5;exitY=1;exitDx=0;exitDy=0;fontSize=12;" parent="ptCPzutmmY7kmalORsYN-1" source="bXW5TPcVM4CxVnHZV8xK-3" target="bXW5TPcVM4CxVnHZV8xK-3" edge="1">
          <mxGeometry relative="1" as="geometry" />
        </mxCell>
        <mxCell id="wqWX7yAe7lLgGffXYq6L-1" value="" style="shape=link;html=1;rounded=0;exitX=1;exitY=0.5;exitDx=0;exitDy=0;edgeStyle=orthogonalEdgeStyle;entryX=0;entryY=0.75;entryDx=0;entryDy=0;fontSize=12;" parent="ptCPzutmmY7kmalORsYN-1" source="wqWX7yAe7lLgGffXYq6L-3" target="4zU_NHBIepmCl1VkYr-2-220" edge="1">
          <mxGeometry relative="1" as="geometry">
            <mxPoint x="1778.7" y="432" as="sourcePoint" />
            <mxPoint x="1771.76" y="417" as="targetPoint" />
          </mxGeometry>
        </mxCell>
        <mxCell id="wqWX7yAe7lLgGffXYq6L-2" value="1" style="resizable=0;html=1;whiteSpace=wrap;align=right;verticalAlign=bottom;fontSize=12;" parent="wqWX7yAe7lLgGffXYq6L-1" connectable="0" vertex="1">
          <mxGeometry x="1" relative="1" as="geometry">
            <mxPoint x="-7" y="25" as="offset" />
          </mxGeometry>
        </mxCell>
        <mxCell id="wqWX7yAe7lLgGffXYq6L-3" value="IN" style="rhombus;whiteSpace=wrap;html=1;fontSize=12;" parent="ptCPzutmmY7kmalORsYN-1" vertex="1">
          <mxGeometry x="1581.31" y="442" width="75" height="80" as="geometry" />
        </mxCell>
        <mxCell id="wqWX7yAe7lLgGffXYq6L-4" value="" style="endArrow=none;html=1;rounded=0;exitX=0;exitY=0.5;exitDx=0;exitDy=0;entryX=1;entryY=0.75;entryDx=0;entryDy=0;edgeStyle=orthogonalEdgeStyle;fontSize=12;" parent="ptCPzutmmY7kmalORsYN-1" source="wqWX7yAe7lLgGffXYq6L-3" target="4zU_NHBIepmCl1VkYr-2-292" edge="1">
          <mxGeometry relative="1" as="geometry">
            <mxPoint x="1529.26" y="249.13" as="sourcePoint" />
            <mxPoint x="1348.76" y="440" as="targetPoint" />
            <Array as="points">
              <mxPoint x="1530" y="482" />
              <mxPoint x="1530" y="480" />
              <mxPoint x="1070" y="480" />
              <mxPoint x="1070" y="980" />
              <mxPoint x="386" y="980" />
            </Array>
          </mxGeometry>
        </mxCell>
        <mxCell id="wqWX7yAe7lLgGffXYq6L-5" value="1" style="resizable=0;html=1;whiteSpace=wrap;align=right;verticalAlign=bottom;fontSize=12;" parent="wqWX7yAe7lLgGffXYq6L-4" connectable="0" vertex="1">
          <mxGeometry x="1" relative="1" as="geometry">
            <mxPoint x="18" y="22" as="offset" />
          </mxGeometry>
        </mxCell>
        <mxCell id="wxTB_v_ak9QkfEpVsrNL-1" value="&lt;b style=&quot;font-size: 12px;&quot;&gt;&lt;u style=&quot;font-size: 12px;&quot;&gt;maint_id&lt;/u&gt;&lt;/b&gt;" style="ellipse;whiteSpace=wrap;html=1;fontSize=12;" parent="ptCPzutmmY7kmalORsYN-1" vertex="1">
          <mxGeometry x="-7.5" y="163.25" width="70" height="30" as="geometry" />
        </mxCell>
        <mxCell id="wxTB_v_ak9QkfEpVsrNL-2" style="rounded=0;orthogonalLoop=1;jettySize=auto;html=1;exitX=0.25;exitY=0;exitDx=0;exitDy=0;entryX=0.5;entryY=1;entryDx=0;entryDy=0;endArrow=none;endFill=0;fontSize=12;" parent="ptCPzutmmY7kmalORsYN-1" source="4zU_NHBIepmCl1VkYr-2-257" target="wxTB_v_ak9QkfEpVsrNL-1" edge="1">
          <mxGeometry relative="1" as="geometry">
            <Array as="points" />
            <mxPoint x="65" y="230" as="sourcePoint" />
          </mxGeometry>
        </mxCell>
        <mxCell id="wxTB_v_ak9QkfEpVsrNL-3" style="rounded=0;orthogonalLoop=1;jettySize=auto;html=1;entryX=0.5;entryY=1;entryDx=0;entryDy=0;endArrow=none;endFill=0;exitX=0.75;exitY=0;exitDx=0;exitDy=0;fontSize=12;" parent="ptCPzutmmY7kmalORsYN-1" source="4zU_NHBIepmCl1VkYr-2-252" target="wxTB_v_ak9QkfEpVsrNL-4" edge="1">
          <mxGeometry relative="1" as="geometry">
            <mxPoint x="170" y="500" as="sourcePoint" />
          </mxGeometry>
        </mxCell>
        <mxCell id="wxTB_v_ak9QkfEpVsrNL-4" value="submission_date" style="ellipse;whiteSpace=wrap;html=1;fontSize=12;" parent="ptCPzutmmY7kmalORsYN-1" vertex="1">
          <mxGeometry x="145" y="455.75" width="110" height="30" as="geometry" />
        </mxCell>
        <mxCell id="wxTB_v_ak9QkfEpVsrNL-5" value="&lt;b&gt;&lt;u&gt;maint_date&lt;/u&gt;&lt;/b&gt;" style="ellipse;whiteSpace=wrap;html=1;fontSize=12;" parent="ptCPzutmmY7kmalORsYN-1" vertex="1">
          <mxGeometry x="77.5" y="163.25" width="80" height="30" as="geometry" />
        </mxCell>
        <mxCell id="wxTB_v_ak9QkfEpVsrNL-6" style="rounded=0;orthogonalLoop=1;jettySize=auto;html=1;entryX=0.5;entryY=1;entryDx=0;entryDy=0;endArrow=none;endFill=0;exitX=0.5;exitY=0;exitDx=0;exitDy=0;fontSize=12;" parent="ptCPzutmmY7kmalORsYN-1" source="4zU_NHBIepmCl1VkYr-2-257" target="wxTB_v_ak9QkfEpVsrNL-5" edge="1">
          <mxGeometry relative="1" as="geometry">
            <mxPoint x="97.5" y="223.12" as="sourcePoint" />
          </mxGeometry>
        </mxCell>
        <mxCell id="d7v6EBF90wFlVe97lzBr-3" value="studies in" style="shape=rhombus;perimeter=rhombusPerimeter;whiteSpace=wrap;html=1;align=center;" vertex="1" parent="ptCPzutmmY7kmalORsYN-1">
          <mxGeometry x="695.5" y="720" width="80" height="60" as="geometry" />
        </mxCell>
        <mxCell id="d7v6EBF90wFlVe97lzBr-2" value="studies in" style="shape=rhombus;perimeter=rhombusPerimeter;whiteSpace=wrap;html=1;align=center;" vertex="1" parent="ptCPzutmmY7kmalORsYN-1">
          <mxGeometry x="797.12" y="720" width="80" height="60" as="geometry" />
        </mxCell>
        <mxCell id="d7v6EBF90wFlVe97lzBr-1" value="Works in" style="shape=rhombus;perimeter=rhombusPerimeter;whiteSpace=wrap;html=1;align=center;" vertex="1" parent="ptCPzutmmY7kmalORsYN-1">
          <mxGeometry x="897.5" y="720" width="70" height="60" as="geometry" />
        </mxCell>
        <mxCell id="d7v6EBF90wFlVe97lzBr-4" value="managed&lt;br&gt;" style="shape=rhombus;perimeter=rhombusPerimeter;whiteSpace=wrap;html=1;align=center;" vertex="1" parent="ptCPzutmmY7kmalORsYN-1">
          <mxGeometry x="984" y="715" width="73" height="60" as="geometry" />
        </mxCell>
        <mxCell id="d7v6EBF90wFlVe97lzBr-5" value="" style="endArrow=none;html=1;rounded=0;entryX=0.097;entryY=0.984;entryDx=0;entryDy=0;exitX=0.5;exitY=0;exitDx=0;exitDy=0;edgeStyle=orthogonalEdgeStyle;entryPerimeter=0;" edge="1" parent="ptCPzutmmY7kmalORsYN-1" source="d7v6EBF90wFlVe97lzBr-3" target="4zU_NHBIepmCl1VkYr-2-205">
          <mxGeometry relative="1" as="geometry">
            <mxPoint x="870" y="630" as="sourcePoint" />
            <mxPoint x="1030" y="630" as="targetPoint" />
            <Array as="points">
              <mxPoint x="790" y="720" />
              <mxPoint x="790" y="580" />
              <mxPoint x="860" y="580" />
              <mxPoint x="860" y="462" />
            </Array>
          </mxGeometry>
        </mxCell>
        <mxCell id="d7v6EBF90wFlVe97lzBr-6" value="1" style="resizable=0;html=1;whiteSpace=wrap;align=right;verticalAlign=bottom;" connectable="0" vertex="1" parent="d7v6EBF90wFlVe97lzBr-5">
          <mxGeometry x="1" relative="1" as="geometry">
            <mxPoint x="-9" y="20" as="offset" />
          </mxGeometry>
        </mxCell>
        <mxCell id="d7v6EBF90wFlVe97lzBr-7" value="" style="endArrow=none;html=1;rounded=0;entryX=0.44;entryY=1.007;entryDx=0;entryDy=0;exitX=0.5;exitY=0;exitDx=0;exitDy=0;entryPerimeter=0;edgeStyle=orthogonalEdgeStyle;" edge="1" parent="ptCPzutmmY7kmalORsYN-1" source="d7v6EBF90wFlVe97lzBr-2" target="4zU_NHBIepmCl1VkYr-2-205">
          <mxGeometry relative="1" as="geometry">
            <mxPoint x="746" y="730" as="sourcePoint" />
            <mxPoint x="908" y="472" as="targetPoint" />
            <Array as="points">
              <mxPoint x="837" y="591" />
              <mxPoint x="890" y="591" />
              <mxPoint x="890" y="463" />
            </Array>
          </mxGeometry>
        </mxCell>
        <mxCell id="d7v6EBF90wFlVe97lzBr-8" value="1" style="resizable=0;html=1;whiteSpace=wrap;align=right;verticalAlign=bottom;" connectable="0" vertex="1" parent="d7v6EBF90wFlVe97lzBr-7">
          <mxGeometry x="1" relative="1" as="geometry">
            <mxPoint x="-1" y="20" as="offset" />
          </mxGeometry>
        </mxCell>
        <mxCell id="d7v6EBF90wFlVe97lzBr-9" value="" style="endArrow=none;html=1;rounded=0;exitX=0.5;exitY=0;exitDx=0;exitDy=0;entryX=0.996;entryY=0.913;entryDx=0;entryDy=0;entryPerimeter=0;edgeStyle=orthogonalEdgeStyle;" edge="1" parent="ptCPzutmmY7kmalORsYN-1" source="d7v6EBF90wFlVe97lzBr-4" target="4zU_NHBIepmCl1VkYr-2-205">
          <mxGeometry relative="1" as="geometry">
            <mxPoint x="756" y="740" as="sourcePoint" />
            <mxPoint x="930" y="480" as="targetPoint" />
            <Array as="points">
              <mxPoint x="980" y="715" />
              <mxPoint x="980" y="589" />
              <mxPoint x="950" y="589" />
              <mxPoint x="950" y="464" />
              <mxPoint x="942" y="464" />
            </Array>
          </mxGeometry>
        </mxCell>
        <mxCell id="d7v6EBF90wFlVe97lzBr-10" value="1" style="resizable=0;html=1;whiteSpace=wrap;align=right;verticalAlign=bottom;" connectable="0" vertex="1" parent="d7v6EBF90wFlVe97lzBr-9">
          <mxGeometry x="1" relative="1" as="geometry">
            <mxPoint x="37" y="18" as="offset" />
          </mxGeometry>
        </mxCell>
        <mxCell id="d7v6EBF90wFlVe97lzBr-11" value="" style="endArrow=none;html=1;rounded=0;entryX=0.75;entryY=1;entryDx=0;entryDy=0;exitX=0.5;exitY=0;exitDx=0;exitDy=0;edgeStyle=orthogonalEdgeStyle;" edge="1" parent="ptCPzutmmY7kmalORsYN-1" source="d7v6EBF90wFlVe97lzBr-1" target="4zU_NHBIepmCl1VkYr-2-205">
          <mxGeometry relative="1" as="geometry">
            <mxPoint x="766" y="750" as="sourcePoint" />
            <mxPoint x="928" y="492" as="targetPoint" />
          </mxGeometry>
        </mxCell>
        <mxCell id="d7v6EBF90wFlVe97lzBr-12" value="1" style="resizable=0;html=1;whiteSpace=wrap;align=right;verticalAlign=bottom;" connectable="0" vertex="1" parent="d7v6EBF90wFlVe97lzBr-11">
          <mxGeometry x="1" relative="1" as="geometry">
            <mxPoint x="2" y="20" as="offset" />
          </mxGeometry>
        </mxCell>
        <mxCell id="d7v6EBF90wFlVe97lzBr-13" value="" style="shape=link;html=1;rounded=0;exitX=0.5;exitY=1;exitDx=0;exitDy=0;entryX=0.41;entryY=0;entryDx=0;entryDy=0;entryPerimeter=0;edgeStyle=orthogonalEdgeStyle;" edge="1" parent="ptCPzutmmY7kmalORsYN-1" source="d7v6EBF90wFlVe97lzBr-3" target="4zU_NHBIepmCl1VkYr-2-5">
          <mxGeometry relative="1" as="geometry">
            <mxPoint x="930" y="940" as="sourcePoint" />
            <mxPoint x="1090" y="940" as="targetPoint" />
            <Array as="points">
              <mxPoint x="735" y="940" />
              <mxPoint x="1239" y="940" />
            </Array>
          </mxGeometry>
        </mxCell>
        <mxCell id="d7v6EBF90wFlVe97lzBr-14" value="N" style="resizable=0;html=1;whiteSpace=wrap;align=right;verticalAlign=bottom;" connectable="0" vertex="1" parent="d7v6EBF90wFlVe97lzBr-13">
          <mxGeometry x="1" relative="1" as="geometry">
            <mxPoint y="-2" as="offset" />
          </mxGeometry>
        </mxCell>
        <mxCell id="d7v6EBF90wFlVe97lzBr-17" value="" style="shape=link;html=1;rounded=0;exitX=0.5;exitY=1;exitDx=0;exitDy=0;entryX=0;entryY=0.75;entryDx=0;entryDy=0;entryPerimeter=0;edgeStyle=orthogonalEdgeStyle;" edge="1" parent="ptCPzutmmY7kmalORsYN-1" source="d7v6EBF90wFlVe97lzBr-2" target="4zU_NHBIepmCl1VkYr-2-1">
          <mxGeometry relative="1" as="geometry">
            <mxPoint x="755" y="800" as="sourcePoint" />
            <mxPoint x="1259" y="1192" as="targetPoint" />
            <Array as="points">
              <mxPoint x="837" y="1020" />
              <mxPoint x="1400" y="1020" />
              <mxPoint x="1400" y="1200" />
            </Array>
          </mxGeometry>
        </mxCell>
        <mxCell id="d7v6EBF90wFlVe97lzBr-18" value="N" style="resizable=0;html=1;whiteSpace=wrap;align=right;verticalAlign=bottom;" connectable="0" vertex="1" parent="d7v6EBF90wFlVe97lzBr-17">
          <mxGeometry x="1" relative="1" as="geometry" />
        </mxCell>
        <mxCell id="d7v6EBF90wFlVe97lzBr-15" value="" style="html=1;rounded=0;exitX=0.5;exitY=1;exitDx=0;exitDy=0;entryX=0;entryY=0.5;entryDx=0;entryDy=0;edgeStyle=orthogonalEdgeStyle;endArrow=none;endFill=0;" edge="1" parent="ptCPzutmmY7kmalORsYN-1" source="d7v6EBF90wFlVe97lzBr-1" target="4zU_NHBIepmCl1VkYr-2-305">
          <mxGeometry relative="1" as="geometry">
            <mxPoint x="745" y="790" as="sourcePoint" />
            <mxPoint x="1249" y="1182" as="targetPoint" />
            <Array as="points">
              <mxPoint x="932" y="920" />
              <mxPoint x="1690" y="920" />
              <mxPoint x="1690" y="1178" />
            </Array>
          </mxGeometry>
        </mxCell>
        <mxCell id="d7v6EBF90wFlVe97lzBr-16" value="N" style="resizable=0;html=1;whiteSpace=wrap;align=right;verticalAlign=bottom;" connectable="0" vertex="1" parent="d7v6EBF90wFlVe97lzBr-15">
          <mxGeometry x="1" relative="1" as="geometry">
            <mxPoint x="-8" as="offset" />
          </mxGeometry>
        </mxCell>
        <mxCell id="d7v6EBF90wFlVe97lzBr-19" value="" style="shape=link;html=1;rounded=0;exitX=0.5;exitY=1;exitDx=0;exitDy=0;entryX=0.25;entryY=0;entryDx=0;entryDy=0;edgeStyle=orthogonalEdgeStyle;" edge="1" parent="ptCPzutmmY7kmalORsYN-1" source="d7v6EBF90wFlVe97lzBr-4" target="4zU_NHBIepmCl1VkYr-2-305">
          <mxGeometry relative="1" as="geometry">
            <mxPoint x="1010" y="970" as="sourcePoint" />
            <mxPoint x="1170" y="970" as="targetPoint" />
            <Array as="points">
              <mxPoint x="1021" y="850" />
              <mxPoint x="1819" y="850" />
            </Array>
          </mxGeometry>
        </mxCell>
        <mxCell id="d7v6EBF90wFlVe97lzBr-20" value="1" style="resizable=0;html=1;whiteSpace=wrap;align=right;verticalAlign=bottom;" connectable="0" vertex="1" parent="d7v6EBF90wFlVe97lzBr-19">
          <mxGeometry x="1" relative="1" as="geometry" />
        </mxCell>
        <mxCell id="d7v6EBF90wFlVe97lzBr-21" value="Advised by" style="shape=rhombus;perimeter=rhombusPerimeter;whiteSpace=wrap;html=1;align=center;" vertex="1" parent="ptCPzutmmY7kmalORsYN-1">
          <mxGeometry x="1603.5" y="1224.55" width="70" height="60" as="geometry" />
        </mxCell>
        <mxCell id="d7v6EBF90wFlVe97lzBr-22" value="" style="shape=link;html=1;rounded=0;exitX=0;exitY=0.5;exitDx=0;exitDy=0;edgeStyle=orthogonalEdgeStyle;" edge="1" parent="ptCPzutmmY7kmalORsYN-1" source="d7v6EBF90wFlVe97lzBr-21">
          <mxGeometry relative="1" as="geometry">
            <mxPoint x="1360" y="1210" as="sourcePoint" />
            <mxPoint x="1290" y="1200" as="targetPoint" />
            <Array as="points">
              <mxPoint x="1448" y="1255" />
              <mxPoint x="1448" y="1230" />
              <mxPoint x="1293" y="1230" />
            </Array>
          </mxGeometry>
        </mxCell>
        <mxCell id="d7v6EBF90wFlVe97lzBr-23" value="N" style="resizable=0;html=1;whiteSpace=wrap;align=right;verticalAlign=bottom;" connectable="0" vertex="1" parent="d7v6EBF90wFlVe97lzBr-22">
          <mxGeometry x="1" relative="1" as="geometry">
            <mxPoint x="20" y="17" as="offset" />
          </mxGeometry>
        </mxCell>
        <mxCell id="d7v6EBF90wFlVe97lzBr-26" value="" style="shape=link;html=1;rounded=0;entryX=0.056;entryY=1.047;entryDx=0;entryDy=0;exitX=1;exitY=0.5;exitDx=0;exitDy=0;edgeStyle=orthogonalEdgeStyle;entryPerimeter=0;" edge="1" parent="ptCPzutmmY7kmalORsYN-1" source="d7v6EBF90wFlVe97lzBr-21" target="4zU_NHBIepmCl1VkYr-2-305">
          <mxGeometry relative="1" as="geometry">
            <mxPoint x="1360" y="1210" as="sourcePoint" />
            <mxPoint x="1520" y="1210" as="targetPoint" />
            <Array as="points">
              <mxPoint x="1730" y="1255" />
              <mxPoint x="1730" y="1210" />
              <mxPoint x="1788" y="1210" />
              <mxPoint x="1788" y="1195" />
            </Array>
          </mxGeometry>
        </mxCell>
        <mxCell id="d7v6EBF90wFlVe97lzBr-27" value="1" style="resizable=0;html=1;whiteSpace=wrap;align=right;verticalAlign=bottom;" connectable="0" vertex="1" parent="d7v6EBF90wFlVe97lzBr-26">
          <mxGeometry x="1" relative="1" as="geometry">
            <mxPoint x="-15" y="17" as="offset" />
          </mxGeometry>
        </mxCell>
        <mxCell id="d7v6EBF90wFlVe97lzBr-28" value="Fname" style="ellipse;whiteSpace=wrap;html=1;align=center;" vertex="1" parent="ptCPzutmmY7kmalORsYN-1">
          <mxGeometry x="1070" y="1256.55" width="50" height="40" as="geometry" />
        </mxCell>
        <mxCell id="d7v6EBF90wFlVe97lzBr-29" value="Lname" style="ellipse;whiteSpace=wrap;html=1;align=center;" vertex="1" parent="ptCPzutmmY7kmalORsYN-1">
          <mxGeometry x="1150" y="1256.55" width="50" height="40" as="geometry" />
        </mxCell>
        <mxCell id="d7v6EBF90wFlVe97lzBr-30" value="" style="endArrow=none;html=1;rounded=0;exitX=0.5;exitY=0;exitDx=0;exitDy=0;entryX=0.413;entryY=0.986;entryDx=0;entryDy=0;entryPerimeter=0;" edge="1" parent="ptCPzutmmY7kmalORsYN-1" source="d7v6EBF90wFlVe97lzBr-28" target="4zU_NHBIepmCl1VkYr-2-25">
          <mxGeometry relative="1" as="geometry">
            <mxPoint x="1320" y="1200" as="sourcePoint" />
            <mxPoint x="1480" y="1200" as="targetPoint" />
          </mxGeometry>
        </mxCell>
        <mxCell id="d7v6EBF90wFlVe97lzBr-31" value="" style="endArrow=none;html=1;rounded=0;exitX=0.394;exitY=0.004;exitDx=0;exitDy=0;entryX=0.5;entryY=1;entryDx=0;entryDy=0;exitPerimeter=0;" edge="1" parent="ptCPzutmmY7kmalORsYN-1" source="d7v6EBF90wFlVe97lzBr-29" target="4zU_NHBIepmCl1VkYr-2-25">
          <mxGeometry relative="1" as="geometry">
            <mxPoint x="1105" y="1267" as="sourcePoint" />
            <mxPoint x="1151" y="1242" as="targetPoint" />
          </mxGeometry>
        </mxCell>
        <mxCell id="d7v6EBF90wFlVe97lzBr-44" value="Fname" style="ellipse;whiteSpace=wrap;html=1;align=center;" vertex="1" parent="ptCPzutmmY7kmalORsYN-1">
          <mxGeometry x="785" y="1074.55" width="50" height="40" as="geometry" />
        </mxCell>
        <mxCell id="d7v6EBF90wFlVe97lzBr-45" value="Lname" style="ellipse;whiteSpace=wrap;html=1;align=center;" vertex="1" parent="ptCPzutmmY7kmalORsYN-1">
          <mxGeometry x="865" y="1074.55" width="50" height="40" as="geometry" />
        </mxCell>
        <mxCell id="d7v6EBF90wFlVe97lzBr-46" value="" style="endArrow=none;html=1;rounded=0;exitX=1;exitY=1;exitDx=0;exitDy=0;entryX=0;entryY=0;entryDx=0;entryDy=0;" edge="1" parent="ptCPzutmmY7kmalORsYN-1" source="d7v6EBF90wFlVe97lzBr-44" target="4zU_NHBIepmCl1VkYr-2-323">
          <mxGeometry relative="1" as="geometry">
            <mxPoint x="1035" y="1018" as="sourcePoint" />
            <mxPoint x="856" y="1050" as="targetPoint" />
          </mxGeometry>
        </mxCell>
        <mxCell id="d7v6EBF90wFlVe97lzBr-47" value="" style="endArrow=none;html=1;rounded=0;exitX=0.757;exitY=0.968;exitDx=0;exitDy=0;entryX=0.572;entryY=-0.044;entryDx=0;entryDy=0;exitPerimeter=0;entryPerimeter=0;" edge="1" parent="ptCPzutmmY7kmalORsYN-1" source="d7v6EBF90wFlVe97lzBr-45" target="4zU_NHBIepmCl1VkYr-2-323">
          <mxGeometry relative="1" as="geometry">
            <mxPoint x="820" y="1085" as="sourcePoint" />
            <mxPoint x="863" y="1050" as="targetPoint" />
          </mxGeometry>
        </mxCell>
        <mxCell id="d7v6EBF90wFlVe97lzBr-40" value="Fname" style="ellipse;whiteSpace=wrap;html=1;align=center;" vertex="1" parent="ptCPzutmmY7kmalORsYN-1">
          <mxGeometry x="1552.55" y="1064.55" width="50" height="25.45" as="geometry" />
        </mxCell>
        <mxCell id="d7v6EBF90wFlVe97lzBr-41" value="Lname" style="ellipse;whiteSpace=wrap;html=1;align=center;" vertex="1" parent="ptCPzutmmY7kmalORsYN-1">
          <mxGeometry x="1613.5" y="1074.55" width="50" height="25.45" as="geometry" />
        </mxCell>
        <mxCell id="d7v6EBF90wFlVe97lzBr-42" value="" style="endArrow=none;html=1;rounded=0;exitX=0.286;exitY=0.933;exitDx=0;exitDy=0;entryX=0.385;entryY=0.029;entryDx=0;entryDy=0;entryPerimeter=0;exitPerimeter=0;" edge="1" parent="ptCPzutmmY7kmalORsYN-1" source="d7v6EBF90wFlVe97lzBr-40" target="4zU_NHBIepmCl1VkYr-2-23">
          <mxGeometry relative="1" as="geometry">
            <mxPoint x="1802.55" y="1008" as="sourcePoint" />
            <mxPoint x="1623.55" y="1040" as="targetPoint" />
          </mxGeometry>
        </mxCell>
        <mxCell id="d7v6EBF90wFlVe97lzBr-43" value="" style="endArrow=none;html=1;rounded=0;exitX=0.393;exitY=1.028;exitDx=0;exitDy=0;entryX=0.785;entryY=0.067;entryDx=0;entryDy=0;exitPerimeter=0;entryPerimeter=0;" edge="1" parent="ptCPzutmmY7kmalORsYN-1" source="d7v6EBF90wFlVe97lzBr-41" target="4zU_NHBIepmCl1VkYr-2-23">
          <mxGeometry relative="1" as="geometry">
            <mxPoint x="1587.55" y="1075" as="sourcePoint" />
            <mxPoint x="1630.55" y="1040" as="targetPoint" />
          </mxGeometry>
        </mxCell>
        <mxCell id="d7v6EBF90wFlVe97lzBr-36" value="Fname" style="ellipse;whiteSpace=wrap;html=1;align=center;" vertex="1" parent="ptCPzutmmY7kmalORsYN-1">
          <mxGeometry x="1870" y="1273" width="50" height="27" as="geometry" />
        </mxCell>
        <mxCell id="d7v6EBF90wFlVe97lzBr-38" value="" style="endArrow=none;html=1;rounded=0;exitX=0.5;exitY=0;exitDx=0;exitDy=0;entryX=0.341;entryY=0.982;entryDx=0;entryDy=0;entryPerimeter=0;" edge="1" parent="ptCPzutmmY7kmalORsYN-1" source="d7v6EBF90wFlVe97lzBr-36" target="4zU_NHBIepmCl1VkYr-2-309">
          <mxGeometry relative="1" as="geometry">
            <mxPoint x="2110" y="1226.45" as="sourcePoint" />
            <mxPoint x="1931" y="1258.45" as="targetPoint" />
          </mxGeometry>
        </mxCell>
        <mxCell id="d7v6EBF90wFlVe97lzBr-37" value="Lname" style="ellipse;whiteSpace=wrap;html=1;align=center;" vertex="1" parent="ptCPzutmmY7kmalORsYN-1">
          <mxGeometry x="1930" y="1273" width="50" height="27" as="geometry" />
        </mxCell>
        <mxCell id="d7v6EBF90wFlVe97lzBr-39" value="" style="endArrow=none;html=1;rounded=0;exitX=0.394;exitY=0.004;exitDx=0;exitDy=0;entryX=0.687;entryY=0.953;entryDx=0;entryDy=0;exitPerimeter=0;entryPerimeter=0;" edge="1" parent="ptCPzutmmY7kmalORsYN-1" source="d7v6EBF90wFlVe97lzBr-37" target="4zU_NHBIepmCl1VkYr-2-309">
          <mxGeometry relative="1" as="geometry">
            <mxPoint x="1895" y="1293.45" as="sourcePoint" />
            <mxPoint x="1938" y="1258.45" as="targetPoint" />
          </mxGeometry>
        </mxCell>
        <mxCell id="d7v6EBF90wFlVe97lzBr-32" value="Fname" style="ellipse;whiteSpace=wrap;html=1;align=center;" vertex="1" parent="ptCPzutmmY7kmalORsYN-1">
          <mxGeometry x="2287.5" y="1115.75" width="50" height="24.25" as="geometry" />
        </mxCell>
        <mxCell id="d7v6EBF90wFlVe97lzBr-33" value="Lname" style="ellipse;whiteSpace=wrap;html=1;align=center;" vertex="1" parent="ptCPzutmmY7kmalORsYN-1">
          <mxGeometry x="2337.5" y="1093.43" width="50" height="26.57" as="geometry" />
        </mxCell>
        <mxCell id="d7v6EBF90wFlVe97lzBr-34" value="" style="endArrow=none;html=1;rounded=0;exitX=0.5;exitY=0;exitDx=0;exitDy=0;entryX=0.665;entryY=0.946;entryDx=0;entryDy=0;entryPerimeter=0;" edge="1" parent="ptCPzutmmY7kmalORsYN-1" source="d7v6EBF90wFlVe97lzBr-32" target="4zU_NHBIepmCl1VkYr-2-26">
          <mxGeometry relative="1" as="geometry">
            <mxPoint x="2537.5" y="1059.2" as="sourcePoint" />
            <mxPoint x="2358.5" y="1091.2" as="targetPoint" />
          </mxGeometry>
        </mxCell>
        <mxCell id="d7v6EBF90wFlVe97lzBr-35" value="" style="endArrow=none;html=1;rounded=0;exitX=0.394;exitY=0.004;exitDx=0;exitDy=0;entryX=0.917;entryY=0.743;entryDx=0;entryDy=0;exitPerimeter=0;entryPerimeter=0;" edge="1" parent="ptCPzutmmY7kmalORsYN-1" source="d7v6EBF90wFlVe97lzBr-33" target="4zU_NHBIepmCl1VkYr-2-26">
          <mxGeometry relative="1" as="geometry">
            <mxPoint x="2322.5" y="1126.2" as="sourcePoint" />
            <mxPoint x="2365.5" y="1091.2" as="targetPoint" />
          </mxGeometry>
        </mxCell>
        <mxCell id="ptCPzutmmY7kmalORsYN-3" value="" style="shape=waypoint;sketch=0;size=6;pointerEvents=1;points=[];fillColor=none;resizable=0;rotatable=0;perimeter=centerPerimeter;snapToPoint=1;" parent="1" vertex="1">
          <mxGeometry x="-1713.75" y="-970" width="20" height="20" as="geometry" />
        </mxCell>
        <mxCell id="ptCPzutmmY7kmalORsYN-4" value="" style="shape=waypoint;sketch=0;size=6;pointerEvents=1;points=[];fillColor=none;resizable=0;rotatable=0;perimeter=centerPerimeter;snapToPoint=1;" parent="1" vertex="1">
          <mxGeometry x="-1713.75" y="890" width="20" height="20" as="geometry" />
        </mxCell>
        <mxCell id="ptCPzutmmY7kmalORsYN-6" value="" style="shape=waypoint;sketch=0;size=6;pointerEvents=1;points=[];fillColor=none;resizable=0;rotatable=0;perimeter=centerPerimeter;snapToPoint=1;" parent="1" vertex="1">
          <mxGeometry x="-3080" y="-15" width="20" height="20" as="geometry" />
        </mxCell>
        <mxCell id="4ufLS3S2P2cCo_jrur-P-1" value="" style="shape=waypoint;sketch=0;size=6;pointerEvents=1;points=[];fillColor=none;resizable=0;rotatable=0;perimeter=centerPerimeter;snapToPoint=1;" parent="1" vertex="1">
          <mxGeometry x="-330" y="-10" width="20" height="20" as="geometry" />
        </mxCell>
      </root>
    </mxGraphModel>
  </diagram>
</mxfile>
